#N canvas 856 129 773 730 12;
#X obj 136 193 wrap~;
#X obj 135 168 +~;
#X obj 136 386 osc~;
#X obj 136 314 *~;
#X obj 136 338 +~;
#X obj 196 362 cos~;
#X obj 149 465 *~;
#X obj 135 218 *~ 1;
#X obj 136 362 mtof~;
#X obj 136 82 inlet~;
#X obj 334 291 loadbang;
#X obj 334 339 f \$1;
#X obj 334 314 bng 19 250 50 0 empty empty empty 0 -10 0 12 #fcfcfc #000000 #000000;
#X obj 247 272 -;
#X obj 233 241 t b f;
#X obj 207 82 inlet;
#X obj 207 107 route min max octave;
#X obj 150 494 outlet~;
#X obj 290 290 *;
#X msg 270 56 min \$1;
#X floatatom 271 28 5 0 0 0 - - - 0;
#X floatatom 327 28 5 0 0 0 - - - 0;
#X floatatom 383 28 5 0 0 0 - - - 0;
#X msg 326 56 max \$1;
#X msg 382 56 octave \$1;
#X floatatom 404 292 5 0 0 0 - - - 0;
#X obj 233 173 pack f f f;
#X obj 252 135 t b f;
#X obj 298 135 t b f;
#X obj 290 241 expr (($f2 - $f1)/$f3);
#X obj 233 197 unpack f f f;
#X obj 290 265 expr 1/$f1;
#X floatatom 282 317 5 0 0 0 - - - 0;
#X obj 195 385 expr~ pow(1-($v1*0.5+0.5) \, 2);
#X connect 0 0 7 0;
#X connect 1 0 0 0;
#X connect 2 0 6 0;
#X connect 3 0 4 0;
#X connect 4 0 8 0;
#X connect 5 0 33 0;
#X connect 6 0 17 0;
#X connect 7 0 5 0;
#X connect 7 0 3 0;
#X connect 8 0 2 0;
#X connect 9 0 1 0;
#X connect 10 0 12 0;
#X connect 11 0 18 1;
#X connect 12 0 11 0;
#X connect 13 0 3 1;
#X connect 14 0 13 0;
#X connect 14 1 13 1;
#X connect 15 0 16 0;
#X connect 16 0 26 0;
#X connect 16 1 27 0;
#X connect 16 2 28 0;
#X connect 18 0 1 1;
#X connect 18 0 32 0;
#X connect 19 0 16 0;
#X connect 20 0 19 0;
#X connect 21 0 23 0;
#X connect 22 0 24 0;
#X connect 23 0 16 0;
#X connect 24 0 16 0;
#X connect 26 0 30 0;
#X connect 27 0 26 0;
#X connect 27 1 26 1;
#X connect 28 0 26 0;
#X connect 28 1 26 2;
#X connect 29 0 25 0;
#X connect 29 0 31 0;
#X connect 30 0 29 0;
#X connect 30 0 14 0;
#X connect 30 0 4 1;
#X connect 30 1 29 1;
#X connect 30 1 13 0;
#X connect 30 2 29 2;
#X connect 31 0 18 0;
#X connect 33 0 6 1;
