#N canvas 767 160 827 929 12;
#X obj 284 207 phasor~;
#X obj 76 293 cos~;
#X obj 132 390 cos~;
#X obj 233 279 wrap~;
#X obj 233 254 +~ 0.5;
#X obj 158 643 *~;
#X obj 192 643 *~;
#X obj 215 775 *~;
#X obj 280 823 line~;
#X msg 280 798 \$1 10;
#X obj 283 774 hsl 162 19 0 1 0 0 empty empty empty -2 -10 0 12 #fcfcfc #000000 #000000 0 0;
#X obj 191 824 dac~ 1 2;
#X floatatom 284 184 5 0 0 0 cycle\ frequency - - 0;
#X obj 203 717 *~;
#X obj 203 745 *~ 1;
#X floatatom 315 355 5 0 0 0 carrier - - 0;
#X obj 315 379 osc~;
#X obj 405 396 expr~ pow(2 \, $v1);
#X obj 534 396 expr~ pow(2 \, $v1);
#X obj 365 487 osc~;
#X obj 538 485 osc~;
#X obj 361 432 *~ 2;
#X obj 537 430 *~ 2;
#X floatatom 503 318 5 0 0 0 - - - 0;
#X floatatom 635 340 5 0 0 0 - - - 0;
#X obj 362 457 +~ 2;
#X obj 538 455 +~ 2;
#X obj 379 130 unpack f f f f;
#X msg 409 16 0.1 303 1 1;
#X msg 423 41 0.1 416 3 0.17;
#X msg 433 65 0.1 452 0.94 4;
#X msg 438 93 -0.12 247 4 0.07;
#X obj 168 678 +~;
#X obj 405 370 *~ 4;
#X obj 534 371 *~ 4;
#X obj 389 550 expr~ pow(1-($v1*0.5+0.5) \, 0.5);
#X obj 540 513 expr~ pow(1-($v1*0.5+0.5) \, 0.5);
#X obj 76 318 expr~ pow(1-($v1*0.5+0.5) \, 1.2);
#X obj 132 415 expr~ pow(1-($v1*0.5+0.5) \, 1.2);
#X connect 0 0 4 0;
#X connect 0 0 1 0;
#X connect 0 0 33 0;
#X connect 1 0 37 0;
#X connect 2 0 38 0;
#X connect 3 0 2 0;
#X connect 3 0 34 0;
#X connect 4 0 3 0;
#X connect 5 0 32 0;
#X connect 6 0 32 1;
#X connect 7 0 11 0;
#X connect 7 0 11 1;
#X connect 8 0 7 1;
#X connect 9 0 8 0;
#X connect 10 0 9 0;
#X connect 12 0 0 0;
#X connect 13 0 14 0;
#X connect 14 0 7 0;
#X connect 15 0 16 0;
#X connect 16 0 13 1;
#X connect 17 0 21 0;
#X connect 18 0 22 0;
#X connect 19 0 35 0;
#X connect 20 0 36 0;
#X connect 21 0 25 0;
#X connect 22 0 26 0;
#X connect 23 0 22 1;
#X connect 23 0 21 1;
#X connect 24 0 25 1;
#X connect 24 0 26 1;
#X connect 25 0 19 0;
#X connect 26 0 20 0;
#X connect 27 0 12 0;
#X connect 27 1 15 0;
#X connect 27 2 23 0;
#X connect 27 3 24 0;
#X connect 28 0 27 0;
#X connect 29 0 27 0;
#X connect 30 0 27 0;
#X connect 31 0 27 0;
#X connect 32 0 13 0;
#X connect 33 0 17 0;
#X connect 34 0 18 0;
#X connect 35 0 5 1;
#X connect 36 0 6 1;
#X connect 37 0 5 0;
#X connect 38 0 6 0;
