#N canvas 264 262 625 708 12;
#X obj 153 569 *~;
#X obj 193 522 line~;
#X msg 193 497 \$1 10;
#X obj 196 473 hsl 162 19 0 1 0 0 empty empty empty -2 -10 0 12 #fcfcfc #000000 #000000 0 0;
#X obj 129 618 dac~ 1 2;
#X msg 225 345 min \$1;
#X floatatom 225 317 5 0 0 0 - - - 0;
#X floatatom 281 317 5 0 0 0 - - - 0;
#X floatatom 337 317 5 0 0 0 - - - 0;
#X msg 281 345 max \$1;
#X msg 337 345 octave \$1;
#X obj 337 257 bng 19 250 50 0 empty empty empty 0 -10 0 12 #fcfcfc #000000 #000000;
#X obj 281 392 list prepend all;
#X obj 281 418 list trim;
#X obj 94 473 *~ 0.1;
#X obj 95 444 clone infinite-tone-unit~ 9;
#X text 263 114 insectes de nuit 1;
#X obj 104 187 t a;
#X floatatom 94 317 5 0 0 0 - - - 0;
#X msg 134 114 0.813 100 108 0.5;
#X obj 152 231 unpack f f f f;
#X msg 121 84 -0.01 60 108 12;
#X text 238 84 aterrissage;
#X text 290 142 insectes de nuit 2;
#X obj 94 345 phasor~;
#X msg 155 142 4.793 117 127 0.32;
#X text 221 53 decollage;
#X msg 104 53 0.08 24 96 12.03;
#X msg 298 186 3.793 93 137 1;
#X msg 312 210 0.343 93 163 1;
#X msg 402 113 0.813 100 108 1.59;
#X msg 363 64 4.813 104 110.1 0.3;
#X text 359 43 insectes de nuit 3;
#X msg 392 245 0.513 89 97 0.5;
#X text 509 246 grenouilles;
#X connect 0 0 4 0;
#X connect 0 0 4 1;
#X connect 1 0 0 1;
#X connect 2 0 1 0;
#X connect 3 0 2 0;
#X connect 5 0 12 0;
#X connect 6 0 5 0;
#X connect 7 0 9 0;
#X connect 8 0 10 0;
#X connect 9 0 12 0;
#X connect 10 0 12 0;
#X connect 11 0 6 0;
#X connect 11 0 7 0;
#X connect 11 0 8 0;
#X connect 12 0 13 0;
#X connect 13 0 15 1;
#X connect 14 0 0 0;
#X connect 15 0 14 0;
#X connect 17 0 20 0;
#X connect 18 0 24 0;
#X connect 19 0 17 0;
#X connect 20 0 18 0;
#X connect 20 1 6 0;
#X connect 20 2 7 0;
#X connect 20 3 8 0;
#X connect 21 0 17 0;
#X connect 24 0 15 0;
#X connect 25 0 17 0;
#X connect 27 0 17 0;
#X connect 28 0 17 0;
#X connect 29 0 17 0;
#X connect 30 0 17 0;
#X connect 31 0 17 0;
#X connect 33 0 17 0;
