#N canvas 402 156 505 603 12;
#X floatatom 311 166 5 0 0 0 start\ ratio - - 0;
#X floatatom 311 189 5 0 0 0 end\ ratio - - 0;
#X floatatom 311 212 5 0 0 0 steps - - 0;
#X floatatom 311 143 5 0 0 0 interval - - 0;
#X obj 353 213 s \$0-steps;
#X obj 353 190 s \$0-endratio;
#X obj 353 167 s \$0-startratio;
#X obj 353 144 s \$0-interval;
#X obj 197 253 bng 19 250 50 0 empty empty empty 0 -10 0 12 #fcfcfc #000000 #000000;
#X floatatom 219 253 5 0 0 0 - - - 0;
#N canvas 359 101 500 487 beatbox 0;
#N canvas 305 172 450 300 kick 0;
#X obj 185 220 *~;
#X obj 217 182 line~;
#X obj 271 115 delay 10;
#X obj 327 115 delay 20;
#X obj 217 16 inlet;
#X obj 217 37 t b b;
#X msg 327 84 stop;
#X obj 185 255 outlet~;
#X msg 327 138 0 400;
#X obj 112 116 *~ 0.75;
#X msg 217 115 1 10;
#X msg 271 139 0.25 10;
#X obj 112 92 osc~ 120;
#X connect 0 0 7 0;
#X connect 1 0 0 1;
#X connect 2 0 11 0;
#X connect 3 0 8 0;
#X connect 4 0 5 0;
#X connect 5 0 3 0;
#X connect 5 0 2 0;
#X connect 5 0 10 0;
#X connect 5 1 6 0;
#X connect 6 0 3 0;
#X connect 6 0 2 0;
#X connect 8 0 1 0;
#X connect 9 0 0 0;
#X connect 10 0 1 0;
#X connect 11 0 1 0;
#X connect 12 0 9 0;
#X restore 106 204 pd kick;
#X obj 106 328 *~;
#X obj 275 206 vsl 15 64 0 1 0 0 empty empty empty 0 -9 0 10 #fcfcfc #000000 #000000 0 0;
#X obj 157 328 *~;
#X obj 326 206 vsl 15 64 0 1 0 0 empty empty empty 0 -9 0 10 #fcfcfc #000000 #000000 0 0;
#N canvas 305 172 450 300 snare 0;
#X obj 185 220 *~;
#X obj 217 182 line~;
#X obj 217 16 inlet;
#X obj 217 37 t b b;
#X msg 310 84 stop;
#X obj 185 255 outlet~;
#X obj 83 81 noise~;
#X msg 254 139 0.2 10;
#X msg 311 138 0 150;
#X obj 83 104 bp~ 1200 3;
#X msg 217 115 1 5;
#X obj 254 115 delay 5;
#X obj 310 115 delay 15;
#X obj 83 126 *~ 0.75;
#X connect 0 0 5 0;
#X connect 1 0 0 1;
#X connect 2 0 3 0;
#X connect 3 0 10 0;
#X connect 3 0 11 0;
#X connect 3 0 12 0;
#X connect 3 1 4 0;
#X connect 4 0 11 0;
#X connect 4 0 12 0;
#X connect 6 0 9 0;
#X connect 7 0 1 0;
#X connect 8 0 1 0;
#X connect 9 0 13 0;
#X connect 10 0 1 0;
#X connect 11 0 7 0;
#X connect 12 0 8 0;
#X connect 13 0 0 0;
#X restore 157 204 pd snare;
#X obj 157 184 bng 15 250 50 0 empty empty empty 17 7 0 10 #fcfcfc #000000 #000000;
#X obj 106 184 bng 15 250 50 0 empty empty empty 17 7 0 10 #fcfcfc #000000 #000000;
#X obj 214 328 *~;
#X obj 381 206 vsl 15 64 0 1 0 0 empty empty empty 0 -9 0 10 #fcfcfc #000000 #000000 0 0;
#X obj 214 184 bng 15 250 50 0 empty empty empty 17 7 0 10 #fcfcfc #000000 #000000;
#N canvas 305 172 450 300 hh 0;
#X obj 185 220 *~;
#X obj 217 182 line~;
#X msg 217 115 1 10;
#X obj 254 115 delay 10;
#X obj 217 16 inlet;
#X obj 217 37 t b b;
#X msg 310 84 stop;
#X obj 185 255 outlet~;
#X obj 85 67 noise~;
#X msg 254 139 0.3 20;
#X msg 310 138 0 100;
#X obj 310 115 delay 30;
#X obj 85 91 bp~ 9000 13;
#X obj 85 113 *~ 0.05;
#X connect 0 0 7 0;
#X connect 1 0 0 1;
#X connect 2 0 1 0;
#X connect 3 0 9 0;
#X connect 4 0 5 0;
#X connect 5 0 3 0;
#X connect 5 0 2 0;
#X connect 5 0 11 0;
#X connect 5 1 6 0;
#X connect 6 0 3 0;
#X connect 6 0 11 0;
#X connect 8 0 12 0;
#X connect 9 0 1 0;
#X connect 10 0 1 0;
#X connect 11 0 10 0;
#X connect 12 0 13 0;
#X connect 13 0 0 0;
#X restore 214 204 pd hh;
#X obj 326 140 loadbang;
#X msg 326 160 1, f 4;
#X obj 123 134 unpack f f f;
#X obj 106 161 sel 1;
#X obj 157 161 sel 1;
#X obj 214 161 sel 1;
#X obj 123 98 inlet;
#X obj 157 409 outlet~;
#X obj 157 385 *~ 1.2;
#X connect 0 0 1 0;
#X connect 1 0 20 0;
#X connect 2 0 1 1;
#X connect 3 0 20 0;
#X connect 4 0 3 1;
#X connect 5 0 3 0;
#X connect 6 0 5 0;
#X connect 7 0 0 0;
#X connect 8 0 20 0;
#X connect 9 0 8 1;
#X connect 10 0 11 0;
#X connect 11 0 8 0;
#X connect 12 0 13 0;
#X connect 13 0 9 0;
#X connect 13 0 4 0;
#X connect 13 0 2 0;
#X connect 14 0 15 0;
#X connect 14 1 16 0;
#X connect 14 2 17 0;
#X connect 15 0 7 0;
#X connect 16 0 6 0;
#X connect 17 0 10 0;
#X connect 18 0 14 0;
#X connect 20 0 19 0;
#X restore 75 362 pd beatbox;
#N canvas 0 23 440 516 sequencer 0;
#X obj 113 346 % 8;
#X obj 159 339 % 8;
#X obj 159 321 + 4;
#X obj 214 340 % 1;
#X obj 113 365 == 0;
#X obj 159 358 == 0;
#X obj 214 359 == 0;
#X obj 131 409 pack f f f;
#X obj 131 433 outlet;
#X obj 175 42 inlet;
#X obj 347 431 outlet;
#X obj 95 385 +;
#X obj 82 324 t f f;
#X obj 75 359 == 7;
#X obj 165 276 t f f f f;
#X connect 0 0 4 0;
#X connect 1 0 5 0;
#X connect 2 0 1 0;
#X connect 3 0 6 0;
#X connect 4 0 11 1;
#X connect 5 0 7 1;
#X connect 6 0 7 2;
#X connect 7 0 8 0;
#X connect 9 0 14 0;
#X connect 11 0 7 0;
#X connect 12 0 13 0;
#X connect 12 1 0 0;
#X connect 13 0 11 0;
#X connect 14 0 12 0;
#X connect 14 1 2 0;
#X connect 14 2 3 0;
#X connect 14 3 10 0;
#X restore 75 260 pd sequencer;
#X msg 84 314 0 0 1;
#X msg 84 294 set \$1 \$2 \$3;
#X obj 84 341 r to-beatbox;
#X obj 76 454 *~;
#X obj 121 461 line~;
#X msg 121 438 \$1 10;
#X obj 124 415 hsl 162 19 0 1 0 0 empty empty empty -2 -10 0 12 #fcfcfc #000000 #000000 0 0;
#X obj 76 523 dac~ 1 2;
#X obj 75 234 +;
#X floatatom 93 209 5 0 32 0 - - - 0;
#X obj 209 221 t f;
#X obj 75 129 tgl 19 0 empty empty empty 0 -10 0 12 #fcfcfc #000000 #000000 0 1;
#N canvas 104 104 872 657 accelerator 0;
#X obj 608 78 r \$0-interval;
#X obj 620 101 r \$0-startratio;
#X obj 620 124 t b f;
#X obj 608 154 *;
#X obj 479 55 r \$0-interval;
#X obj 491 101 t b f;
#X obj 479 131 *;
#X obj 491 78 r \$0-endratio;
#X obj 480 362 /;
#X obj 498 285 r \$0-steps;
#X obj 498 332 t b f;
#X obj 498 309 * 2;
#X obj 456 277 -;
#X obj 492 242 t b f;
#X obj 430 424 f;
#X obj 370 394 t f b;
#X obj 272 287 f;
#X obj 323 281 + 1;
#X obj 323 307 mod;
#X obj 354 308 r \$0-steps;
#X obj 326 363 t b f;
#X obj 339 453 expr ($f1*2+1) * $f2 + $f3;
#X obj 608 179 t f f;
#X obj 143 229 jl/pulse;
#X obj 272 320 t f f;
#X obj 143 255 t b b;
#X obj 143 280 timer;
#X obj 200 60 inlet;
#X obj 194 550 outlet;
#X floatatom 143 314 5 0 0 0 - - - 0;
#X obj 456 302 * 1;
#X connect 0 0 3 0;
#X connect 1 0 2 0;
#X connect 2 0 3 0;
#X connect 2 1 3 1;
#X connect 3 0 22 0;
#X connect 4 0 6 0;
#X connect 5 0 6 0;
#X connect 5 1 6 1;
#X connect 6 0 12 0;
#X connect 7 0 5 0;
#X connect 8 0 14 1;
#X connect 9 0 11 0;
#X connect 10 0 8 0;
#X connect 10 1 8 1;
#X connect 11 0 10 0;
#X connect 12 0 30 0;
#X connect 13 0 12 0;
#X connect 13 1 12 1;
#X connect 14 0 21 1;
#X connect 15 0 21 0;
#X connect 15 1 14 0;
#X connect 16 0 17 0;
#X connect 16 0 24 0;
#X connect 17 0 18 0;
#X connect 18 0 16 1;
#X connect 19 0 18 1;
#X connect 20 1 15 0;
#X connect 21 0 23 1;
#X connect 22 0 13 0;
#X connect 22 1 21 2;
#X connect 23 0 25 0;
#X connect 24 0 28 0;
#X connect 24 1 20 0;
#X connect 25 0 26 0;
#X connect 25 1 26 1;
#X connect 25 1 16 0;
#X connect 26 0 29 0;
#X connect 27 0 23 0;
#X connect 30 0 8 0;
#X restore 75 157 pd accelerator;
#X obj 318 111 unpack f f f f;
#X msg 248 26 100 0.33 2 12;
#X msg 357 33 100 2 0.33 12;
#X msg 184 65 100 1 2 32;
#X connect 0 0 6 0;
#X connect 1 0 5 0;
#X connect 2 0 4 0;
#X connect 3 0 7 0;
#X connect 10 0 15 0;
#X connect 11 0 10 0;
#X connect 11 0 13 0;
#X connect 13 0 12 0;
#X connect 14 0 10 0;
#X connect 15 0 19 0;
#X connect 15 0 19 1;
#X connect 16 0 15 1;
#X connect 17 0 16 0;
#X connect 18 0 17 0;
#X connect 20 0 11 0;
#X connect 21 0 20 1;
#X connect 22 0 9 0;
#X connect 22 0 8 0;
#X connect 23 0 24 0;
#X connect 24 0 20 0;
#X connect 24 0 22 0;
#X connect 25 0 3 0;
#X connect 25 1 0 0;
#X connect 25 2 1 0;
#X connect 25 3 2 0;
#X connect 26 0 25 0;
#X connect 27 0 25 0;
#X connect 28 0 25 0;
