#N canvas 7 25 516 501 12;
#X declare -path ./utilities;
#X floatatom 151 144 5 0 0 2 modulator - - 0;
#X floatatom 220 144 5 0 0 2 amplitude - - 0;
#X floatatom 82 144 5 0 0 2 carrier - - 0;
#X obj 162 408 dac~ 1 2;
#X obj 183 289 *~;
#X obj 289 223 line~;
#X obj 118 190 fm-simple~;
#X obj 118 216 *~ 0.2;
#X obj 183 366 feedback-delay~ 166 0.5;
#X obj 82 56 r solist-fm;
#X obj 262 273 r solist-delay;
#X obj 262 300 route delay feedback;
#X obj 82 81 route carrier modulator amplitude volume;
#X msg 289 201 \$1 10;
#X floatatom 341 342 5 0 0 2 feedback - - 0;
#X floatatom 262 342 5 0 0 2 delay - - 0;
#X obj 81 18 declare -path ./utilities;
#X connect 0 0 6 1;
#X connect 1 0 6 2;
#X connect 2 0 6 0;
#X connect 4 0 8 0;
#X connect 5 0 4 1;
#X connect 6 0 7 0;
#X connect 7 0 4 0;
#X connect 8 0 3 0;
#X connect 8 0 3 1;
#X connect 9 0 12 0;
#X connect 10 0 11 0;
#X connect 11 0 15 0;
#X connect 11 1 14 0;
#X connect 12 0 2 0;
#X connect 12 1 0 0;
#X connect 12 2 1 0;
#X connect 12 3 13 0;
#X connect 13 0 5 0;
#X connect 14 0 8 2;
#X connect 15 0 8 1;
