#N canvas 3 25 737 522 12;
#X declare -path ./utilities;
#X obj 143 166 map 0 1 100 1000;
#X obj 329 118 map 0 1 0 100;
#X obj 229 142 map 0 1 2 100;
#X obj 439 151 clip 0 1;
#X obj 439 126 map 0.001 1 0 1;
#X obj 143 94 r accx;
#X obj 229 94 r accy;
#X obj 329 94 r accz;
#X obj 439 100 r accintensity;
#X msg 143 202 carrier \$1;
#X msg 229 202 modulator \$1;
#X msg 329 202 amplitude \$1;
#X msg 439 202 volume \$1;
#X obj 278 264 s solist-fm;
#X obj 55 31 declare -path ./utilities;
#X connect 0 0 9 0;
#X connect 1 0 11 0;
#X connect 2 0 10 0;
#X connect 3 0 12 0;
#X connect 4 0 3 0;
#X connect 5 0 0 0;
#X connect 6 0 2 0;
#X connect 7 0 1 0;
#X connect 8 0 4 0;
#X connect 9 0 13 0;
#X connect 10 0 13 0;
#X connect 11 0 13 0;
#X connect 12 0 13 0;
