#N canvas 538 54 635 361 12;
#X obj 134 20 netreceive -u -b 8000;
#X obj 134 48 oscparse;
#X obj 134 74 list trim;
#X obj 369 123 print;
#X obj 134 109 route synth;
#X obj 134 141 route vol freq;
#X obj 123 239 s solist-fm;
#X msg 123 209 volume \$1;
#X connect 0 0 1 0;
#X connect 1 0 2 0;
#X connect 2 0 4 0;
#X connect 4 0 5 0;
#X connect 5 0 7 0;
#X connect 7 0 6 0;
