#N canvas 518 205 701 667 12;
#X declare -path ./utilities;
#X obj 55 31 declare -path ./utilities;
#X obj 55 133 oscparse;
#X obj 55 159 list trim;
#X obj 54 510 vsl 15 128 0 1 0 0 empty empty empty 0 -9 0 10 #fcfcfc
#000000 #000000 0 0;
#X obj 141 520 vsl 15 128 0 1 0 0 empty empty empty 0 -9 0 10 #fcfcfc
#000000 #000000 0 0;
#X obj 227 520 vsl 15 128 0 1 0 0 empty empty empty 0 -9 0 10 #fcfcfc
#000000 #000000 0 0;
#X obj 55 457 t f f;
#X obj 141 457 t f f;
#X obj 227 457 t f f;
#X obj 333 59 intensity 0.9 7;
#X obj 510 86 bng 15 250 50 0 empty empty empty 17 7 0 10 #fcfcfc #000000
#000000;
#X obj 496 59 intensity-peak 0.1 150;
#X obj 227 407 tgl 15 0 empty empty empty 17 7 0 10 #fcfcfc #000000
#000000 0 1;
#X obj 227 383 loadbang;
#X obj 55 183 route streamo touch sequence;
#N canvas 623 202 457 490 get-accelerometer-axis 0;
#X obj 94 151 list split 1;
#X obj 134 174 list split 3;
#X obj 134 214 unpack f f f;
#X obj 104 358 map -9.81 9.81 1 0;
#X obj 174 331 map -9.81 9.81 1 0;
#X obj 244 303 map -9.81 9.81 1 0;
#X obj 134 284 smooth 0.85;
#X obj 174 261 smooth 0.85;
#X obj 215 238 smooth 0.85;
#X obj 94 126 list;
#X obj 165 86 metro 10;
#X obj 104 433 outlet;
#X obj 174 434 outlet;
#X obj 244 434 outlet;
#X obj 119 37 inlet;
#X obj 165 37 inlet;
#X connect 0 1 1 0;
#X connect 1 0 2 0;
#X connect 2 0 6 0;
#X connect 2 1 7 0;
#X connect 2 2 8 0;
#X connect 3 0 11 0;
#X connect 4 0 12 0;
#X connect 5 0 13 0;
#X connect 6 0 3 0;
#X connect 7 0 4 0;
#X connect 8 0 5 0;
#X connect 9 0 0 0;
#X connect 10 0 9 0;
#X connect 14 0 9 1;
#X connect 15 0 10 0;
#X restore 55 431 pd get-accelerometer-axis;
#X obj 87 490 s accx;
#X obj 173 490 s accy;
#X obj 259 490 s accz;
#X obj 333 29 r accx;
#X obj 384 29 r accy;
#X obj 435 29 r accz;
#X obj 496 29 r accintensity;
#X obj 333 108 s accintensity;
#X obj 496 108 s acctrig;
#X obj 346 86 hsl 128 15 0 1 0 0 empty empty empty -2 -8 0 10 #fcfcfc
#000000 #000000 0 0;
#X obj 119 221 unpack f f;
#X obj 119 252 map -1 1 0 1;
#X obj 213 252 map -1.33 1.33 0 1;
#X obj 156 335 vsl 15 80 0 1 0 0 empty empty empty 0 -9 0 10 #fcfcfc
#000000 #000000 0 0;
#X obj 151 302 s touchx;
#X obj 119 277 t f f;
#X obj 213 277 t f f;
#X obj 245 302 s touchy;
#X obj 122 367 hsl 80 15 0 1 0 0 empty empty empty -2 -8 0 10 #fcfcfc
#000000 #000000 0 0;
#X obj 209 221 s sequence;
#X obj 68 101 netreceive -u -b 8000;
#X obj 436 284 route multisense;
#X obj 436 314 route accelerometer gyroscope;
#X obj 435 345 route x y z;
#X obj 536 343 route x y z;
#X obj 411 406 map -9.81 9.81 1 0;
#X obj 429 431 map -9.81 9.81 1 0;
#X obj 451 454 map -9.81 9.81 1 0;
#X obj 171 149 route intensity;
#X obj 377 177 print;
#X obj 55 75 netreceive -u -b 7401;
#X obj 409 212 hsl 128 15 0 1 0 0 empty empty empty -2 -8 0 10 #fcfcfc
#000000 #000000 0 0;
#X connect 1 0 2 0;
#X connect 2 0 14 0;
#X connect 2 0 44 0;
#X connect 6 0 3 0;
#X connect 6 1 16 0;
#X connect 7 0 4 0;
#X connect 7 1 17 0;
#X connect 8 0 5 0;
#X connect 8 1 18 0;
#X connect 9 0 23 0;
#X connect 9 0 25 0;
#X connect 11 0 10 0;
#X connect 11 0 24 0;
#X connect 12 0 15 1;
#X connect 13 0 12 0;
#X connect 14 0 15 0;
#X connect 14 1 26 0;
#X connect 14 2 35 0;
#X connect 14 3 37 0;
#X connect 15 0 6 0;
#X connect 15 1 7 0;
#X connect 15 2 8 0;
#X connect 19 0 9 0;
#X connect 20 0 9 1;
#X connect 21 0 9 2;
#X connect 22 0 11 0;
#X connect 26 0 27 0;
#X connect 26 1 28 0;
#X connect 27 0 31 0;
#X connect 28 0 32 0;
#X connect 31 0 34 0;
#X connect 31 1 30 0;
#X connect 32 0 29 0;
#X connect 32 1 33 0;
#X connect 36 0 1 0;
#X connect 37 0 38 0;
#X connect 38 0 39 0;
#X connect 38 1 40 0;
#X connect 39 0 41 0;
#X connect 39 1 42 0;
#X connect 39 2 43 0;
#X connect 41 0 3 0;
#X connect 41 0 16 0;
#X connect 42 0 4 0;
#X connect 42 0 17 0;
#X connect 43 0 5 0;
#X connect 43 0 18 0;
#X connect 44 0 45 0;
#X connect 44 0 47 0;
#X connect 46 0 1 0;
