#N canvas 0 34 824 675 12;
#X obj 63 230 osc~;
#X obj 104 230 osc~;
#X obj 144 230 osc~;
#X obj 184 230 osc~;
#X obj 224 230 osc~;
#X obj 201 537 dac~ 1 2;
#X obj 510 400 line~;
#X msg 510 379 \$1 10;
#X obj 513 359 hsl 128 15 0 1 0 0 empty empty volume -2 -8 0 10 #fcfcfc
#000000 #000000 0 0;
#X obj 63 348 *~;
#X obj 104 348 *~;
#X obj 144 348 *~;
#X obj 184 348 *~;
#X obj 224 348 *~;
#X floatatom 63 114 5 0 0 2 f0 - - 0;
#X obj 144 195 * 3;
#X obj 184 194 * 4;
#X obj 224 194 * 5;
#N canvas 174 46 517 451 read-amplitudes 0;
#X obj 78 226 line~;
#X msg 78 205 \$1 10;
#X obj 124 226 line~;
#X msg 124 205 \$1 10;
#X obj 170 226 line~;
#X msg 170 205 \$1 10;
#X obj 216 226 line~;
#X msg 216 205 \$1 10;
#X obj 263 226 line~;
#X msg 263 205 \$1 10;
#X obj 147 81 metro 20;
#X obj 147 60 tgl 15 0 empty empty empty 17 7 0 10 #fcfcfc #000000
#000000 0 1;
#X obj 147 35 loadbang;
#X obj 147 105 array get \$0-amplitudes;
#X obj 78 395 outlet~;
#X obj 124 371 outlet~;
#X obj 170 347 outlet~;
#X obj 216 323 outlet~;
#X obj 263 299 outlet~;
#X obj 147 130 unpack f f f f f f f;
#X obj 309 225 line~;
#X msg 309 204 \$1 10;
#X obj 356 225 line~;
#X msg 356 204 \$1 10;
#X obj 309 275 outlet~;
#X obj 356 251 outlet~;
#X connect 0 0 14 0;
#X connect 1 0 0 0;
#X connect 2 0 15 0;
#X connect 3 0 2 0;
#X connect 4 0 16 0;
#X connect 5 0 4 0;
#X connect 6 0 17 0;
#X connect 7 0 6 0;
#X connect 8 0 18 0;
#X connect 9 0 8 0;
#X connect 10 0 13 0;
#X connect 11 0 10 0;
#X connect 12 0 11 0;
#X connect 13 0 19 0;
#X connect 19 0 1 0;
#X connect 19 1 3 0;
#X connect 19 2 5 0;
#X connect 19 3 7 0;
#X connect 19 4 9 0;
#X connect 19 5 21 0;
#X connect 19 6 23 0;
#X connect 20 0 24 0;
#X connect 21 0 20 0;
#X connect 22 0 25 0;
#X connect 23 0 22 0;
#X restore 323 265 pd read-amplitudes;
#N canvas 0 22 450 278 (subpatch) 0;
#X array \$0-amplitudes 7 float 2;
#X coords 0 1 7 0 200 140 1 0 0;
#X restore 509 196 graph;
#X obj 508 146 array set \$0-amplitudes;
#X obj 224 502 *~;
#X obj 224 469 *~ 0.1;
#X obj 63 52 loadbang;
#X msg 63 76 120;
#X obj 264 230 osc~;
#X obj 264 348 *~;
#X obj 264 194 * 6;
#X obj 304 230 osc~;
#X obj 304 348 *~;
#X obj 304 194 * 7;
#X msg 508 58 1 0.8 0.6 0.4 0.3 0.2 0.1;
#X msg 533 111 0 0 0 0 0 0 0;
#X msg 520 85 0.1 0.2 0.3 0.4 0.6 0.8 1;
#X obj 104 195 * 2;
#X text 311 512 la technique de synthèse additive est la plus simple
de toutes : elle consiste à construire un spectre fréquence par fréquence
\, en utilisant un oscillateur par partiel et en contrôlant directement
son amplitude en lui appliquant un facteur constant;
#X text 312 591 ici on construit un spectre harmonique (dont tous les
partiels sont des multiples entiers d'un même fréquence f0 : la "fondamentale")
;
#X connect 0 0 9 0;
#X connect 1 0 10 0;
#X connect 2 0 11 0;
#X connect 3 0 12 0;
#X connect 4 0 13 0;
#X connect 6 0 21 1;
#X connect 7 0 6 0;
#X connect 8 0 7 0;
#X connect 9 0 22 0;
#X connect 10 0 22 0;
#X connect 11 0 22 0;
#X connect 12 0 22 0;
#X connect 13 0 22 0;
#X connect 14 0 0 0;
#X connect 14 0 15 0;
#X connect 14 0 16 0;
#X connect 14 0 17 0;
#X connect 14 0 27 0;
#X connect 14 0 30 0;
#X connect 14 0 34 0;
#X connect 15 0 2 0;
#X connect 16 0 3 0;
#X connect 17 0 4 0;
#X connect 18 0 9 1;
#X connect 18 1 10 1;
#X connect 18 2 11 1;
#X connect 18 3 12 1;
#X connect 18 4 13 1;
#X connect 18 5 26 1;
#X connect 18 6 29 1;
#X connect 21 0 5 0;
#X connect 21 0 5 1;
#X connect 22 0 21 0;
#X connect 23 0 24 0;
#X connect 24 0 14 0;
#X connect 25 0 26 0;
#X connect 26 0 22 0;
#X connect 27 0 25 0;
#X connect 28 0 29 0;
#X connect 29 0 22 0;
#X connect 30 0 28 0;
#X connect 31 0 20 0;
#X connect 32 0 20 0;
#X connect 33 0 20 0;
#X connect 34 0 1 0;
