#N canvas 0 23 884 675 12;
#X obj 72 177 osc~;
#X obj 113 177 osc~;
#X obj 153 177 osc~;
#X obj 193 177 osc~;
#X obj 233 177 osc~;
#X obj 210 461 dac~ 1 2;
#X obj 462 330 line~;
#X msg 462 309 \$1 10;
#X obj 465 289 hsl 128 15 0 1 0 0 empty empty volume -2 -8 0 10 #fcfcfc
#000000 #000000 0 0;
#X obj 72 272 *~;
#X obj 113 272 *~;
#X obj 153 272 *~;
#X obj 193 272 *~;
#X obj 233 272 *~;
#X floatatom 72 96 5 0 0 2 f0 - - 0;
#X obj 113 142 * 2;
#X obj 153 142 * 3;
#X obj 193 141 * 4;
#X obj 233 141 * 5;
#N canvas 0 23 378 451 read-amplitudes 0;
#X obj 78 226 line~;
#X msg 78 205 \$1 10;
#X obj 124 226 line~;
#X msg 124 205 \$1 10;
#X obj 170 226 line~;
#X msg 170 205 \$1 10;
#X obj 216 226 line~;
#X msg 216 205 \$1 10;
#X obj 263 225 line~;
#X msg 263 204 \$1 10;
#X obj 78 80 metro 20;
#X obj 78 128 unpack f f f f f;
#X obj 78 59 tgl 15 0 empty empty empty 17 7 0 10 #fcfcfc #000000 #000000
0 1;
#X obj 78 34 loadbang;
#X obj 78 104 array get \$0-amplitudes;
#X obj 78 363 outlet~;
#X obj 124 339 outlet~;
#X obj 170 315 outlet~;
#X obj 216 291 outlet~;
#X obj 263 268 outlet~;
#X connect 0 0 15 0;
#X connect 1 0 0 0;
#X connect 2 0 16 0;
#X connect 3 0 2 0;
#X connect 4 0 17 0;
#X connect 5 0 4 0;
#X connect 6 0 18 0;
#X connect 7 0 6 0;
#X connect 8 0 19 0;
#X connect 9 0 8 0;
#X connect 10 0 14 0;
#X connect 11 0 1 0;
#X connect 11 1 3 0;
#X connect 11 2 5 0;
#X connect 11 3 7 0;
#X connect 11 4 9 0;
#X connect 12 0 10 0;
#X connect 13 0 12 0;
#X connect 14 0 11 0;
#X restore 253 206 pd read-amplitudes;
#N canvas 0 22 450 278 (subpatch) 0;
#X array \$0-amplitudes 5 float 2;
#X coords 0 1 5 0 200 140 1 0 0;
#X restore 461 126 graph;
#X obj 461 79 array set \$0-amplitudes;
#X msg 461 56 1 0.8 0.6 0.4 0.2;
#X obj 72 34 loadbang;
#X obj 324 296 osc~;
#X floatatom 324 272 5 0 0 2 f_mod - - 0;
#X obj 233 357 *~;
#X obj 507 452 ../utilities/spectral-display am-adv;
#X msg 72 58 500;
#X text 456 375 on constate que le repliement spectral se produit non
seulement à la fréquence de Nyquist mais aussi lorsque la fréquence
devient négative (sin(-wt) = sin(wt));
#X obj 461 33 loadbang;
#X text 25 504 la modulation d'amplitude est une simple multiplication
;
#X msg 526 33 1 0 0 0 0;
#X text 27 566 chaque fréquence du signal modulé est dédoublée
(et l'amplitude de chaque double divisée par 2) et décalée de part
et d'autre de sa valeur originale par chaque fréquence présente dans
le signal modulant;
#X text 26 530 la multiplication dans le domaine temporel est équivalente
à la convolution dans le domaine spectral (et vice-versa);
#X obj 233 426 *~ 0.1;
#X obj 233 390 *~;
#X connect 0 0 9 0;
#X connect 1 0 10 0;
#X connect 2 0 11 0;
#X connect 3 0 12 0;
#X connect 4 0 13 0;
#X connect 6 0 36 1;
#X connect 7 0 6 0;
#X connect 8 0 7 0;
#X connect 9 0 26 0;
#X connect 10 0 26 0;
#X connect 11 0 26 0;
#X connect 12 0 26 0;
#X connect 13 0 26 0;
#X connect 14 0 0 0;
#X connect 14 0 15 0;
#X connect 14 0 16 0;
#X connect 14 0 17 0;
#X connect 14 0 18 0;
#X connect 15 0 1 0;
#X connect 16 0 2 0;
#X connect 17 0 3 0;
#X connect 18 0 4 0;
#X connect 19 0 9 1;
#X connect 19 1 10 1;
#X connect 19 2 11 1;
#X connect 19 3 12 1;
#X connect 19 4 13 1;
#X connect 22 0 21 0;
#X connect 23 0 28 0;
#X connect 24 0 26 1;
#X connect 25 0 24 0;
#X connect 26 0 27 0;
#X connect 26 0 36 0;
#X connect 28 0 14 0;
#X connect 30 0 22 0;
#X connect 32 0 21 0;
#X connect 35 0 5 0;
#X connect 35 0 5 1;
#X connect 36 0 35 0;
