#N canvas 0 23 521 620 12;
#X obj 139 103 osc~;
#X obj 139 174 +~;
#X floatatom 171 175 5 0 0 1 frequence_porteuse - -;
#X floatatom 139 69 5 0 0 1 frequence_de_modulation - -;
#X obj 139 142 *~;
#X floatatom 170 143 5 0 0 1 amplitude_de_modulation - -;
#X obj 139 376 dac~ 1 2;
#X obj 139 318 *~;
#X obj 194 276 line~;
#X msg 194 255 \$1 10;
#X obj 197 235 hsl 128 15 0 1 0 0 empty empty volume -2 -8 0 10 -262144
-1 -1 0 0;
#X obj 139 235 osc~;
#X obj 139 344 *~ 0.2;
#X text 49 517 lorsque la fréquence de modulation atteint une fréquence
audible \, le spectre résultant présente des propriétés sonore
particulières;
#X text 49 456 la modulation de fréquence est simplement une variation
dans le temps de la fréquence d'un signal périodique : le vibrato
est un exemple de modulation de fréquence;
#X connect 0 0 4 0;
#X connect 1 0 11 0;
#X connect 2 0 1 1;
#X connect 3 0 0 0;
#X connect 4 0 1 0;
#X connect 5 0 4 1;
#X connect 7 0 12 0;
#X connect 8 0 7 1;
#X connect 9 0 8 0;
#X connect 10 0 9 0;
#X connect 11 0 7 0;
#X connect 12 0 6 0;
#X connect 12 0 6 1;
