#N canvas 0 23 741 705 12;
#X obj 16 197 noise~;
#X obj 97 427 *~;
#X obj 132 427 *~;
#X obj 167 427 *~;
#X obj 202 427 *~;
#X obj 236 427 *~;
#N canvas 0 22 450 278 (subpatch) 0;
#X array \$0-amplitudes 5 float 2;
#X coords 0 1 5 0 200 140 1 0 0;
#X restore 425 239 graph;
#X obj 424 191 array set \$0-amplitudes;
#X msg 424 103 1 0.8 0.6 0.4 0.2;
#X msg 436 130 0.2 0.4 0.6 0.8 1;
#N canvas 0 23 378 451 read-amplitudes 0;
#X obj 78 226 line~;
#X msg 78 205 \$1 10;
#X obj 124 226 line~;
#X msg 124 205 \$1 10;
#X obj 170 226 line~;
#X msg 170 205 \$1 10;
#X obj 216 226 line~;
#X msg 216 205 \$1 10;
#X obj 263 225 line~;
#X msg 263 204 \$1 10;
#X obj 78 80 metro 20;
#X obj 78 128 unpack f f f f f;
#X obj 78 59 tgl 15 0 empty empty empty 17 7 0 10 -262144 -1 -1 1 1
;
#X obj 78 34 loadbang;
#X obj 78 104 array get \$0-amplitudes;
#X obj 78 363 outlet~;
#X obj 124 339 outlet~;
#X obj 170 315 outlet~;
#X obj 216 291 outlet~;
#X obj 263 268 outlet~;
#X connect 0 0 15 0;
#X connect 1 0 0 0;
#X connect 2 0 16 0;
#X connect 3 0 2 0;
#X connect 4 0 17 0;
#X connect 5 0 4 0;
#X connect 6 0 18 0;
#X connect 7 0 6 0;
#X connect 8 0 19 0;
#X connect 9 0 8 0;
#X connect 10 0 14 0;
#X connect 11 0 1 0;
#X connect 11 1 3 0;
#X connect 11 2 5 0;
#X connect 11 3 7 0;
#X connect 11 4 9 0;
#X connect 12 0 10 0;
#X connect 13 0 12 0;
#X connect 14 0 11 0;
#X restore 253 359 pd read-amplitudes;
#X obj 236 621 dac~ 1 2;
#X obj 236 528 *~;
#X obj 314 469 line~;
#X msg 314 448 \$1 10;
#X obj 317 428 hsl 128 15 0 1 0 0 empty empty volume -2 -8 0 10 -262144
-1 -1 0 0;
#X floatatom 106 154 5 0 0 2 f0 - -;
#X obj 141 231 * 2;
#X obj 176 231 * 3;
#X obj 211 231 * 4;
#X obj 245 231 * 5;
#X floatatom 300 231 5 0 0 2 Q - -;
#X msg 449 156 0 0 0 0 0;
#X obj 106 73 loadbang;
#X msg 106 105 500;
#X msg 300 164 250;
#X obj 236 553 *~ 0.2;
#N canvas 0 23 614 708 synthese-par-formants 0;
#X obj 83 393 bp~, f 4;
#X obj 119 393 bp~, f 4;
#X obj 155 393 bp~, f 4;
#X obj 186 502 *~;
#X obj 216 502 *~;
#X obj 246 502 *~;
#X obj 222 651 dac~ 1 2;
#X obj 246 578 *~;
#X obj 309 544 line~;
#X msg 309 521 \$1 10;
#X obj 312 502 hsl 128 15 0 1 0 0 empty empty volume -2 -8 0 10 -262144
-1 -1 0 0;
#X obj 83 145 +~;
#X floatatom 150 86 5 0 0 0 - - -;
#X obj 422 275 vsl 25 100 0 1 0 0 empty empty empty 0 -9 0 10 -262144
-1 -1 9900 0;
#X floatatom 144 310 5 0 0 1 Q - -;
#X obj 462 275 vsl 25 100 0 1 0 0 empty empty empty 0 -9 0 10 -262144
-1 -1 4950 0;
#X obj 502 275 vsl 25 100 0 1 0 0 empty empty empty 0 -9 0 10 -262144
-1 -1 3267 0;
#X obj 83 62 osc~ 5;
#X floatatom 422 442 5 0 0 0 - - -;
#X floatatom 462 442 5 0 0 0 - - -;
#X floatatom 502 442 5 0 0 0 - - -;
#X obj 83 214 *~ 1;
#X floatatom 108 86 5 0 0 0 - - -;
#X obj 83 191 expr~ $v1 * 2 - 1;
#X obj 321 218 unpack s f f f f f f;
#X symbolatom 295 219 3 0 0 0 current_vowel - -;
#X obj 83 109 *~ 1;
#X msg 362 71 a 730 1090 2440 1 0.5 0.33;
#X obj 83 168 phasor~;
#X obj 150 38 loadbang;
#X obj 144 262 loadbang;
#X msg 144 286 50;
#X floatatom 299 273 5 0 0 0 - - -;
#X floatatom 339 273 5 0 0 0 - - -;
#X floatatom 379 273 5 0 0 0 - - -;
#X msg 362 93 e 441 1500 2576 1 0.5 0.2;
#X msg 362 181 ou 300 700 2240 1 0.3 0;
#X msg 362 115 i 270 2290 3010 0.7 0.05 0.3;
#X msg 362 159 u 288 1777 2089 1 0.25 0.1;
#X msg 150 62 60;
#X msg 362 137 o 420 775 2410 1 0.33 0.25;
#X obj 362 49 loadbang;
#X obj 246 613 *~ 0.2;
#X connect 0 0 3 0;
#X connect 1 0 4 0;
#X connect 2 0 5 0;
#X connect 3 0 7 0;
#X connect 4 0 7 0;
#X connect 5 0 7 0;
#X connect 7 0 42 0;
#X connect 8 0 7 1;
#X connect 9 0 8 0;
#X connect 10 0 9 0;
#X connect 11 0 28 0;
#X connect 12 0 11 1;
#X connect 13 0 3 1;
#X connect 13 0 18 0;
#X connect 14 0 2 2;
#X connect 14 0 1 2;
#X connect 14 0 0 2;
#X connect 15 0 4 1;
#X connect 15 0 19 0;
#X connect 16 0 5 1;
#X connect 16 0 20 0;
#X connect 17 0 26 0;
#X connect 21 0 0 0;
#X connect 21 0 1 0;
#X connect 21 0 2 0;
#X connect 22 0 26 1;
#X connect 23 0 21 0;
#X connect 24 0 25 0;
#X connect 24 1 32 0;
#X connect 24 2 33 0;
#X connect 24 3 34 0;
#X connect 24 4 13 0;
#X connect 24 5 15 0;
#X connect 24 6 16 0;
#X connect 26 0 11 0;
#X connect 27 0 24 0;
#X connect 28 0 23 0;
#X connect 29 0 39 0;
#X connect 30 0 31 0;
#X connect 31 0 14 0;
#X connect 32 0 0 1;
#X connect 33 0 1 1;
#X connect 34 0 2 1;
#X connect 35 0 24 0;
#X connect 36 0 24 0;
#X connect 37 0 24 0;
#X connect 38 0 24 0;
#X connect 39 0 12 0;
#X connect 40 0 24 0;
#X connect 41 0 27 0;
#X connect 42 0 6 0;
#X connect 42 0 6 1;
#X restore 426 567 pd synthese-par-formants;
#N canvas 0 23 638 626 filtrage-de-forme-d-onde 0;
#X obj 60 131 phasor~ 100;
#X floatatom 60 76 5 0 0 1 f0 - -;
#X obj 38 542 dac~ 1 2;
#X obj 60 483 *~;
#X obj 78 454 line~;
#X msg 78 431 \$1 10;
#X obj 81 412 hsl 128 15 0 1 0 0 empty empty volume -2 -8 0 10 -262144
-1 -1 0 0;
#X obj 130 261 *;
#X obj 151 224 t b f;
#X floatatom 151 202 5 0 0 1 f0_ratio - -;
#X floatatom 203 258 5 0 0 1 Q - -;
#X obj 60 102 t f f;
#X obj 60 156 expr~ (1 - $v1) * 2 - 1;
#X obj 60 508 *~ 0.1;
#X obj 269 391 ../utilities/spectral-display ffo;
#X obj 60 332 ../utilities/mix2~;
#X obj 201 334 hsl 128 15 0 1 0 0 empty empty dry/wet -2 -8 0 10 -262144
-1 -1 0 0;
#X obj 263 144 loadbang;
#X msg 263 168 1;
#X obj 60 28 loadbang;
#X msg 60 52 80;
#X obj 121 293 bp~;
#X connect 0 0 12 0;
#X connect 1 0 11 0;
#X connect 3 0 13 0;
#X connect 4 0 3 1;
#X connect 5 0 4 0;
#X connect 6 0 5 0;
#X connect 7 0 21 1;
#X connect 8 0 7 0;
#X connect 8 1 7 1;
#X connect 9 0 8 0;
#X connect 10 0 21 2;
#X connect 11 0 0 0;
#X connect 11 1 7 0;
#X connect 12 0 15 0;
#X connect 12 0 21 0;
#X connect 13 0 2 0;
#X connect 13 0 2 1;
#X connect 15 0 3 0;
#X connect 15 0 14 0;
#X connect 16 0 15 2;
#X connect 17 0 18 0;
#X connect 18 0 10 0;
#X connect 18 0 9 0;
#X connect 19 0 20 0;
#X connect 20 0 1 0;
#X connect 21 0 15 1;
#X restore 426 540 pd filtrage-de-forme-d-onde;
#X obj 97 324 bp~;
#X obj 132 324 bp~;
#X obj 167 324 bp~;
#X obj 202 324 bp~;
#X obj 236 324 bp~;
#X text 425 512 voir aussi :;
#X connect 0 0 29 0;
#X connect 0 0 30 0;
#X connect 0 0 31 0;
#X connect 0 0 32 0;
#X connect 0 0 33 0;
#X connect 1 0 12 0;
#X connect 2 0 12 0;
#X connect 3 0 12 0;
#X connect 4 0 12 0;
#X connect 5 0 12 0;
#X connect 8 0 7 0;
#X connect 9 0 7 0;
#X connect 10 0 1 1;
#X connect 10 1 2 1;
#X connect 10 2 3 1;
#X connect 10 3 4 1;
#X connect 10 4 5 1;
#X connect 12 0 26 0;
#X connect 13 0 12 1;
#X connect 14 0 13 0;
#X connect 15 0 14 0;
#X connect 16 0 17 0;
#X connect 16 0 18 0;
#X connect 16 0 19 0;
#X connect 16 0 20 0;
#X connect 16 0 29 1;
#X connect 17 0 30 1;
#X connect 18 0 31 1;
#X connect 19 0 32 1;
#X connect 20 0 33 1;
#X connect 21 0 29 2;
#X connect 21 0 30 2;
#X connect 21 0 31 2;
#X connect 21 0 32 2;
#X connect 21 0 33 2;
#X connect 22 0 7 0;
#X connect 23 0 24 0;
#X connect 23 0 25 0;
#X connect 24 0 16 0;
#X connect 25 0 21 0;
#X connect 26 0 11 0;
#X connect 26 0 11 1;
#X connect 29 0 1 0;
#X connect 30 0 2 0;
#X connect 31 0 3 0;
#X connect 32 0 4 0;
#X connect 33 0 5 0;
