#N canvas 0 23 830 584 12;
#N canvas 38 23 1026 797 sawtooth-wavetable-generator 0;
#X obj 363 392 until;
#X obj 363 437 f;
#X obj 392 437 + 1;
#X msg 407 392 1;
#X obj 363 218 until;
#X obj 363 250 f;
#X obj 392 250 + 1;
#X msg 407 218 0;
#X msg 363 122 512;
#X obj 363 326 f;
#X text 395 148 array size;
#X obj 816 492 swap 1;
#X obj 816 521 /;
#X text 482 258 number of harmonics;
#X obj 798 548 *;
#X obj 446 624 +;
#X obj 478 624 f;
#X obj 363 174 t f b b f;
#X obj 363 353 t f b b;
#X msg 508 439 0;
#X obj 363 681 f;
#X obj 441 283 t f f;
#X floatatom 508 194 5 1 15 0 - - - 0;
#X obj 363 519 select;
#X obj 446 577 expr pow(-1 \, $f1) * sin(6.28319 * $f1 * $f2) / $f1
;
#X obj 363 280 t b f;
#X obj 648 480 t f f;
#X obj 363 466 t f f;
#X obj 83 524 unpack f f;
#X msg 83 496 511 0 \, 0 513 \, 1 514;
#X obj 116 342 until;
#X msg 116 317 512;
#X obj 116 372 f;
#X obj 146 373 + 1;
#X obj 116 397 t f f;
#X obj 148 421 + 1;
#X obj 155 458 pack f f;
#X msg 178 335 0;
#X obj 116 280 t b b;
#X obj 363 148 f;
#X text 547 114 see : https://en.wikipedia.org/wiki/Sawtooth_wave;
#X obj 363 705 expr -1 * $f1 / 6.28319;
#X obj 84 236 bng 15 250 50 0 empty empty empty 17 7 0 10 #fcfcfc #000000
#000000;
#X obj 84 256 t b b;
#X obj 692 274 array define sawtooth 515;
#X obj 83 572 array set sawtooth;
#X text 547 60 the sawtooth can be approximated from a fourier serie
using additive synthesis to generate a bandlimited waveshape \, which
allows the implementation of antialiasing oscillators;
#X obj 340 62 bng 15 250 50 0 empty empty empty 17 7 0 10 #fcfcfc #000000
#000000;
#X msg 508 168 15;
#X text 599 639 generate a period of the waveform, f 34;
#X text 49 617 generate a period of the waveform \, then copy the array
and duplicate 3 extra points for use with tabosc4~, f 49;
#X obj 340 37 loadbang;
#X obj 340 83 t b b b;
#X obj 363 732 array set \$0-sawtooth-tmp;
#X obj 692 247 array define \$0-sawtooth-tmp 512;
#X obj 83 548 array get \$0-sawtooth-tmp;
#X connect 0 0 1 0;
#X connect 1 0 2 0;
#X connect 1 0 27 0;
#X connect 2 0 1 1;
#X connect 3 0 1 1;
#X connect 4 0 5 0;
#X connect 5 0 6 0;
#X connect 5 0 25 0;
#X connect 6 0 5 1;
#X connect 7 0 5 1;
#X connect 8 0 39 0;
#X connect 9 0 18 0;
#X connect 11 0 12 0;
#X connect 11 1 12 1;
#X connect 12 0 14 1;
#X connect 14 0 24 1;
#X connect 15 0 16 0;
#X connect 15 0 20 1;
#X connect 16 0 15 1;
#X connect 17 0 4 0;
#X connect 17 1 7 0;
#X connect 17 3 11 0;
#X connect 18 0 0 0;
#X connect 18 1 3 0;
#X connect 18 2 19 0;
#X connect 19 0 15 1;
#X connect 20 0 41 0;
#X connect 21 0 9 1;
#X connect 21 1 23 1;
#X connect 22 0 21 0;
#X connect 23 0 20 0;
#X connect 24 0 15 0;
#X connect 25 0 9 0;
#X connect 25 1 26 0;
#X connect 26 0 53 1;
#X connect 26 1 14 0;
#X connect 27 0 23 0;
#X connect 27 1 24 0;
#X connect 28 0 55 0;
#X connect 28 1 45 1;
#X connect 29 0 28 0;
#X connect 30 0 32 0;
#X connect 31 0 30 0;
#X connect 32 0 33 0;
#X connect 32 0 34 0;
#X connect 33 0 32 1;
#X connect 34 0 36 0;
#X connect 34 1 35 0;
#X connect 35 0 36 1;
#X connect 36 0 28 0;
#X connect 37 0 32 1;
#X connect 38 0 31 0;
#X connect 38 1 37 0;
#X connect 39 0 17 0;
#X connect 41 0 53 0;
#X connect 42 0 43 0;
#X connect 43 0 29 0;
#X connect 43 1 38 0;
#X connect 47 0 52 0;
#X connect 48 0 22 0;
#X connect 51 0 47 0;
#X connect 52 0 42 0;
#X connect 52 1 8 0;
#X connect 52 2 48 0;
#X connect 55 0 45 0;
#X restore 80 431 pd sawtooth-wavetable-generator;
#N canvas 38 23 1026 797 square-wavetable-generator 0;
#X obj 363 392 until;
#X obj 363 437 f;
#X obj 392 437 + 1;
#X msg 407 392 1;
#X obj 363 218 until;
#X obj 363 250 f;
#X obj 392 250 + 1;
#X msg 407 218 0;
#X msg 363 122 512;
#X obj 363 326 f;
#X text 395 148 array size;
#X obj 846 495 swap 1;
#X obj 846 524 /;
#X text 482 258 number of harmonics;
#X obj 828 551 *;
#X obj 446 624 +;
#X obj 478 624 f;
#X obj 363 174 t f b b f;
#X obj 363 353 t f b b;
#X msg 508 439 0;
#X obj 363 681 f;
#X obj 441 283 t f f;
#X floatatom 508 194 5 1 15 0 - - - 0;
#X obj 363 519 select;
#X obj 363 280 t b f;
#X obj 648 480 t f f;
#X obj 363 466 t f f;
#X obj 83 524 unpack f f;
#X msg 83 496 511 0 \, 0 513 \, 1 514;
#X obj 116 342 until;
#X msg 116 317 512;
#X obj 116 372 f;
#X obj 146 373 + 1;
#X obj 116 397 t f f;
#X obj 148 421 + 1;
#X obj 155 458 pack f f;
#X msg 178 335 0;
#X obj 116 280 t b b;
#X obj 363 148 f;
#X obj 363 705 expr -1 * $f1 / 6.28319;
#X obj 84 236 bng 15 250 50 0 empty empty empty 17 7 0 10 #fcfcfc #000000
#000000;
#X obj 84 256 t b b;
#X obj 340 62 bng 15 250 50 0 empty empty empty 17 7 0 10 #fcfcfc #000000
#000000;
#X text 49 617 generate a period of the waveform \, then copy the array
and duplicate 3 extra points for use with tabosc4~, f 49;
#X obj 340 37 loadbang;
#X obj 340 83 t b b b;
#X text 547 60 the square can be approximated from a fourier serie
using additive synthesis to generate a bandlimited waveshape \, which
allows the implementation of antialiasing oscillators;
#X text 547 114 see : https://en.wikipedia.org/wiki/Square_wave;
#X obj 446 577 expr sin(6.28319 * (2 * $f1 - 1) * $f2) / (2 * $f1 -
1);
#X obj 692 274 array define square 515;
#X obj 692 247 array define \$0-square-tmp 512;
#X obj 363 732 array set \$0-square-tmp;
#X obj 83 572 array set square;
#X obj 83 548 array get \$0-square-tmp;
#X msg 508 168 15;
#X connect 0 0 1 0;
#X connect 1 0 2 0;
#X connect 1 0 26 0;
#X connect 2 0 1 1;
#X connect 3 0 1 1;
#X connect 4 0 5 0;
#X connect 5 0 6 0;
#X connect 5 0 24 0;
#X connect 6 0 5 1;
#X connect 7 0 5 1;
#X connect 8 0 38 0;
#X connect 9 0 18 0;
#X connect 11 0 12 0;
#X connect 11 1 12 1;
#X connect 12 0 14 1;
#X connect 14 0 48 1;
#X connect 15 0 16 0;
#X connect 15 0 20 1;
#X connect 16 0 15 1;
#X connect 17 0 4 0;
#X connect 17 1 7 0;
#X connect 17 3 11 0;
#X connect 18 0 0 0;
#X connect 18 1 3 0;
#X connect 18 2 19 0;
#X connect 19 0 15 1;
#X connect 20 0 39 0;
#X connect 21 0 9 1;
#X connect 21 1 23 1;
#X connect 22 0 21 0;
#X connect 23 0 20 0;
#X connect 24 0 9 0;
#X connect 24 1 25 0;
#X connect 25 0 51 1;
#X connect 25 1 14 0;
#X connect 26 0 23 0;
#X connect 26 1 48 0;
#X connect 27 0 53 0;
#X connect 27 1 52 1;
#X connect 28 0 27 0;
#X connect 29 0 31 0;
#X connect 30 0 29 0;
#X connect 31 0 32 0;
#X connect 31 0 33 0;
#X connect 32 0 31 1;
#X connect 33 0 35 0;
#X connect 33 1 34 0;
#X connect 34 0 35 1;
#X connect 35 0 27 0;
#X connect 36 0 31 1;
#X connect 37 0 30 0;
#X connect 37 1 36 0;
#X connect 38 0 17 0;
#X connect 39 0 51 0;
#X connect 40 0 41 0;
#X connect 41 0 28 0;
#X connect 41 1 37 0;
#X connect 42 0 45 0;
#X connect 44 0 42 0;
#X connect 45 0 40 0;
#X connect 45 1 8 0;
#X connect 45 2 54 0;
#X connect 48 0 15 0;
#X connect 53 0 52 0;
#X connect 54 0 22 0;
#X restore 478 431 pd square-wavetable-generator;
#X obj 161 117 tabosc4~ sawtooth;
#X obj 100 117 phasor~;
#X obj 100 213 ../utilities/mix2~;
#X obj 241 214 hsl 128 15 0 1 0 0 empty empty empty -2 -8 0 10 #fcfcfc
#000000 #000000 0 0;
#X obj 100 357 *~;
#X obj 118 333 line~;
#X msg 118 309 \$1 5;
#X obj 121 288 hsl 128 15 0 1 0 0 empty empty volume -2 -8 0 10 #fcfcfc
#000000 #000000 0 0;
#X obj 80 401 dac~ 1 2;
#X obj 100 68 sig~ 300;
#X floatatom 100 43 5 0 0 0 - - - 0;
#X obj 100 150 expr~ ($v1 * 2 - 1) * 0.2;
#X obj 100 241 *~ 0.2;
#X obj 498 213 ../utilities/mix2~;
#X obj 639 214 hsl 128 15 0 1 0 0 empty empty empty -2 -8 0 10 #fcfcfc
#000000 #000000 0 0;
#X obj 498 357 *~;
#X obj 516 333 line~;
#X msg 516 309 \$1 5;
#X obj 519 288 hsl 128 15 0 1 0 0 empty empty volume -2 -8 0 10 #fcfcfc
#000000 #000000 0 0;
#X obj 478 401 dac~ 1 2;
#X obj 498 68 sig~ 300;
#X floatatom 498 43 5 0 0 0 - - - 0;
#X obj 498 117 osc~;
#X obj 559 117 tabosc4~ square;
#X obj 498 150 expr~ ($v1 > 0) * 0.2;
#X obj 498 241 *~ 0.4;
#X connect 2 0 4 1;
#X connect 3 0 13 0;
#X connect 4 0 14 0;
#X connect 5 0 4 2;
#X connect 6 0 10 0;
#X connect 6 0 10 1;
#X connect 7 0 6 1;
#X connect 8 0 7 0;
#X connect 9 0 8 0;
#X connect 11 0 3 0;
#X connect 11 0 2 0;
#X connect 12 0 11 0;
#X connect 13 0 4 0;
#X connect 14 0 6 0;
#X connect 15 0 27 0;
#X connect 16 0 15 2;
#X connect 17 0 21 0;
#X connect 17 0 21 1;
#X connect 18 0 17 1;
#X connect 19 0 18 0;
#X connect 20 0 19 0;
#X connect 22 0 24 0;
#X connect 22 0 25 0;
#X connect 23 0 22 0;
#X connect 24 0 26 0;
#X connect 25 0 15 1;
#X connect 26 0 15 0;
#X connect 27 0 17 0;
