#N canvas 5 23 1240 699 12;
#X obj 47 88 openpanel;
#X obj 47 140 soundfiler;
#X msg 47 114 read -resize \$1 granular-sample;
#X obj 47 268 array define granular-sample;
#X msg 114 163 \$1;
#X obj 47 235 s \$0-nsamples;
#X obj 516 326 sig~;
#X floatatom 364 81 5 1 10000 2 grain\ duration - - 0;
#X floatatom 693 143 5 0 10000 2 grain\ start - - 0;
#X floatatom 477 81 5 0 0 2 transposition - - 0;
#X obj 473 561 *~;
#X obj 594 486 line~;
#X msg 594 463 \$1 10;
#X obj 597 443 hsl 128 15 0 1 0 0 empty empty empty -2 -8 0 10 #fcfcfc
#000000 #000000 0 0;
#X obj 450 600 dac~ 1 2;
#X obj 549 235 *;
#X obj 506 174 t b f;
#X obj 406 267 /;
#X obj 427 180 t f f;
#X obj 520 235 *;
#X obj 383 234 swap 1000;
#X obj 477 326 sig~;
#X obj 477 118 expr pow(2 \, $f1 / 12);
#X obj 489 267 t b f;
#X obj 477 303 *;
#X obj 406 326 phasor~;
#X obj 474 414 +~ 0.5;
#X obj 474 438 wrap~;
#N canvas 354 545 450 300 grain 0;
#X obj 206 197 tabread4~ granular-sample;
#X obj 108 136 cos~;
#X obj 300 93 samphold~;
#X obj 188 221 *~;
#X obj 194 132 *~;
#X obj 206 174 +~;
#X obj 108 113 wrap~;
#X obj 230 93 samphold~;
#X obj 150 35 inlet~;
#X obj 230 35 inlet~;
#X obj 300 35 inlet~;
#X obj 188 250 outlet~;
#X obj 108 159 *~ 0.5;
#X obj 108 182 +~ 0.5;
#X obj 108 90 +~ 0.5;
#X connect 0 0 3 1;
#X connect 1 0 12 0;
#X connect 2 0 5 1;
#X connect 3 0 11 0;
#X connect 4 0 5 0;
#X connect 5 0 0 0;
#X connect 6 0 1 0;
#X connect 7 0 4 1;
#X connect 8 0 4 0;
#X connect 8 0 7 1;
#X connect 8 0 2 1;
#X connect 8 0 14 0;
#X connect 9 0 7 0;
#X connect 10 0 2 0;
#X connect 12 0 13 0;
#X connect 13 0 3 0;
#X connect 14 0 6 0;
#X restore 375 468 pd grain;
#N canvas 354 545 450 300 grain 0;
#X obj 206 197 tabread4~ granular-sample;
#X obj 300 93 samphold~;
#X obj 188 221 *~;
#X obj 194 132 *~;
#X obj 206 174 +~;
#X obj 230 93 samphold~;
#X obj 150 35 inlet~;
#X obj 230 35 inlet~;
#X obj 300 35 inlet~;
#X obj 188 250 outlet~;
#X obj 104 132 cos~;
#X obj 104 109 wrap~;
#X obj 104 155 *~ 0.5;
#X obj 104 178 +~ 0.5;
#X obj 104 86 +~ 0.5;
#X connect 0 0 2 1;
#X connect 1 0 4 1;
#X connect 2 0 9 0;
#X connect 3 0 4 0;
#X connect 4 0 0 0;
#X connect 5 0 3 1;
#X connect 6 0 3 0;
#X connect 6 0 5 1;
#X connect 6 0 1 1;
#X connect 6 0 14 0;
#X connect 7 0 5 0;
#X connect 8 0 1 0;
#X connect 10 0 12 0;
#X connect 11 0 10 0;
#X connect 12 0 13 0;
#X connect 13 0 2 0;
#X connect 14 0 11 0;
#X restore 496 467 pd grain;
#X obj 433 510 *~ 1;
#X obj 114 187 * 0.001;
#X obj 114 211 s \$0-filemsr;
#X obj 506 148 r \$0-filemsr;
#X obj 576 406 +~;
#X obj 544 406 +~;
#X obj 622 309 noise~;
#X obj 622 363 *~;
#X obj 573 309 noise~;
#X obj 573 363 *~;
#X floatatom 694 226 5 0 0 2 randomize\ start - - 0;
#X obj 729 282 t b f;
#X obj 729 256 r \$0-filemsr;
#X obj 694 318 *;
#X obj 66 349 r \$0-filemsr;
#X obj 48 326 r \$0-nsamples;
#X obj 48 372 /;
#X obj 693 103 *;
#X obj 695 48 hsl 128 15 0 1 0 0 empty empty empty -2 -8 0 10 #fcfcfc
#000000 #000000 0 0;
#X text 509 633 lecture non linéaire de fragments du son;
#X text 269 633 synthèse granulaire (synchrone) :;
#X obj 48 397 s \$0-msduration;
#X obj 711 79 r \$0-msduration;
#X obj 47 45 bng 30 250 50 0 empty empty empty 17 7 0 10 #fcfcfc #000000
#000000;
#X text 83 43 chargement d'un fichier son;
#X text 83 57 dans le tableau granular-sample;
#X text 755 354 la synthèse granulaire consiste à générer des sons
inouïs à partir de sons existants. il en existe plusieurs sortes
\, dont le point commun est de jouer une multitude de fragments de
sons pré-enregistrés de manière superposée \, en faisant éventuellement
varier les différents paramètres perceptifs de ces fragments \, ou
"grains" : hauteur (par transposition) \, timbre (généralement par
filtrage) et dynamique (en modulant les enveloppes de ces grains).
;
#X text 757 475 les techniques de synthèse granulaire permettent généralement
de jouer des échantillons en décorrélant (de manière très rudimentaire)
la hauteur perçue de la durée du son \, et de faire du "time-stretching".
;
#X connect 0 0 2 0;
#X connect 1 0 5 0;
#X connect 1 1 4 0;
#X connect 2 0 1 0;
#X connect 4 0 31 0;
#X connect 6 0 34 0;
#X connect 6 0 35 0;
#X connect 7 0 18 0;
#X connect 8 0 15 0;
#X connect 9 0 22 0;
#X connect 10 0 14 0;
#X connect 10 0 14 1;
#X connect 11 0 10 1;
#X connect 12 0 11 0;
#X connect 13 0 12 0;
#X connect 15 0 6 0;
#X connect 16 0 15 0;
#X connect 16 0 19 0;
#X connect 16 1 15 1;
#X connect 16 1 19 1;
#X connect 17 0 25 0;
#X connect 18 0 20 0;
#X connect 18 1 19 0;
#X connect 19 0 23 0;
#X connect 20 0 17 0;
#X connect 20 1 17 1;
#X connect 21 0 28 1;
#X connect 21 0 29 1;
#X connect 22 0 24 0;
#X connect 23 0 24 0;
#X connect 23 1 24 1;
#X connect 24 0 21 0;
#X connect 25 0 26 0;
#X connect 25 0 28 0;
#X connect 26 0 27 0;
#X connect 27 0 29 0;
#X connect 28 0 30 0;
#X connect 29 0 30 0;
#X connect 30 0 10 0;
#X connect 31 0 32 0;
#X connect 33 0 16 0;
#X connect 34 0 29 2;
#X connect 35 0 28 2;
#X connect 36 0 37 0;
#X connect 37 0 34 1;
#X connect 38 0 39 0;
#X connect 39 0 35 1;
#X connect 40 0 43 0;
#X connect 41 0 43 0;
#X connect 41 1 43 1;
#X connect 42 0 41 0;
#X connect 43 0 37 1;
#X connect 43 0 39 1;
#X connect 44 0 46 1;
#X connect 45 0 46 0;
#X connect 46 0 51 0;
#X connect 47 0 8 0;
#X connect 48 0 47 0;
#X connect 52 0 47 1;
#X connect 53 0 0 0;
