#N canvas 185 146 719 468 12;
#X obj 322 194 line~;
#X obj 243 297 bob~;
#X obj 368 223 line~;
#X obj 360 126 t b b;
#X obj 250 161 t f f;
#X obj 254 84 t f b;
#X obj 123 201 line~;
#X msg 123 177 \$1 3;
#X floatatom 282 298 5 0 0 0 - - - 0;
#X obj 218 123 t f f;
#X obj 276 360 *~;
#X obj 369 303 loadbang;
#X msg 369 325 3;
#X obj 123 225 tabosc4~ sawtooth;
#X text 104 287 bassliner;
#X obj 255 24 inlet;
#X obj 274 397 outlet~;
#X obj 250 194 * 6;
#X obj 282 194 * 3;
#X obj 322 166 ../utilities/ar-trig 1 10 0 300;
#X obj 368 198 ../utilities/adsr-trig 10 50 0.3 300;
#X obj 255 260 ../utilities/map~ 1 0;
#X connect 0 0 21 0;
#X connect 1 0 10 0;
#X connect 2 0 10 1;
#X connect 3 0 19 0;
#X connect 3 1 20 0;
#X connect 4 0 17 0;
#X connect 4 1 18 0;
#X connect 5 0 9 0;
#X connect 5 1 3 0;
#X connect 6 0 13 0;
#X connect 7 0 6 0;
#X connect 8 0 1 2;
#X connect 9 0 7 0;
#X connect 9 1 4 0;
#X connect 10 0 16 0;
#X connect 11 0 12 0;
#X connect 12 0 8 0;
#X connect 13 0 1 0;
#X connect 15 0 5 0;
#X connect 17 0 21 3;
#X connect 18 0 21 4;
#X connect 19 0 0 0;
#X connect 20 0 2 0;
#X connect 21 0 1 1;
