#N canvas 152 189 470 400 12;
#X obj 141 260 line~;
#X obj 64 304 *~;
#X obj 44 158 osc~ 60;
#X floatatom 352 178 5 0 0 0 - - - 0;
#X obj 44 206 expr~ if($v1 > 0 \, 1-pow(1-$v1 \, $f2) \, pow(1+$v1
\, $f2)-1);
#X msg 44 110 60 \, 50 1000;
#X obj 44 134 line~;
#X obj 44 182 *~ 0.25;
#X obj 65 48 t b b;
#X obj 351 129 loadbang;
#X msg 351 151 2;
#X text 151 294 slightly distorted kick;
#X obj 64 19 inlet;
#X obj 72 351 outlet~;
#X obj 141 235 ../utilities/adsr-trig 5 100 0.2 500;
#X connect 0 0 1 1;
#X connect 1 0 13 0;
#X connect 2 0 7 0;
#X connect 3 0 4 1;
#X connect 4 0 1 0;
#X connect 5 0 6 0;
#X connect 6 0 2 0;
#X connect 7 0 4 0;
#X connect 8 0 5 0;
#X connect 8 1 14 0;
#X connect 9 0 10 0;
#X connect 10 0 3 0;
#X connect 12 0 8 0;
#X connect 14 0 0 0;
