#N canvas 0 23 1143 630 12;
#X declare -path ../utilities;
#X obj 33 20 declare -path ../utilities;
#X obj 378 235 line~;
#X obj 299 338 bob~;
#X obj 424 264 line~;
#X obj 416 167 t b b;
#X obj 306 202 t f f;
#X obj 310 125 t f b;
#X obj 179 242 line~;
#X msg 179 218 \$1 3;
#X floatatom 338 339 5 0 0 0 - - - 0;
#X obj 274 164 t f f;
#X obj 332 401 *~;
#X obj 410 545 *~;
#X obj 521 595 line~;
#X msg 521 571 \$1 10;
#X obj 310 101 mtof;
#X obj 524 551 hsl 128 15 0 1 0 0 empty empty empty -2 -8 0 10 #fcfcfc
#000000 #000000 0 0;
#X obj 392 576 dac~ 1 2;
#N canvas 248 280 687 279 keyboard 0;
#X msg 85 135 60;
#X msg 116 135 61;
#X msg 146 135 62;
#X msg 177 135 63;
#X msg 208 135 64;
#X msg 238 135 65;
#X msg 269 135 66;
#X msg 300 135 67;
#X msg 330 135 68;
#X msg 361 135 69;
#X msg 392 135 70;
#X msg 422 135 71;
#X obj 330 218 outlet;
#X obj 141 26 key;
#X floatatom 173 27 5 0 0 0 - - - 0;
#X msg 453 135 72;
#X msg 483 135 73;
#X msg 514 135 74;
#X msg 545 135 75;
#X msg 575 135 76;
#X obj 141 58 sel 113 122 115 101 100 102 116 103 121 104 117 106 107
111 108 112 109;
#X connect 0 0 12 0;
#X connect 1 0 12 0;
#X connect 2 0 12 0;
#X connect 3 0 12 0;
#X connect 4 0 12 0;
#X connect 5 0 12 0;
#X connect 6 0 12 0;
#X connect 7 0 12 0;
#X connect 8 0 12 0;
#X connect 9 0 12 0;
#X connect 10 0 12 0;
#X connect 11 0 12 0;
#X connect 13 0 14 0;
#X connect 13 0 20 0;
#X connect 15 0 12 0;
#X connect 16 0 12 0;
#X connect 17 0 12 0;
#X connect 18 0 12 0;
#X connect 19 0 12 0;
#X connect 20 0 0 0;
#X connect 20 1 1 0;
#X connect 20 2 2 0;
#X connect 20 3 3 0;
#X connect 20 4 4 0;
#X connect 20 5 5 0;
#X connect 20 6 6 0;
#X connect 20 7 7 0;
#X connect 20 8 8 0;
#X connect 20 9 9 0;
#X connect 20 10 10 0;
#X connect 20 11 11 0;
#X connect 20 12 15 0;
#X connect 20 13 16 0;
#X connect 20 14 17 0;
#X connect 20 15 18 0;
#X connect 20 16 19 0;
#X restore 325 36 pd keyboard;
#N canvas 38 23 1026 797 sawtooth-wavetable-generator 0;
#X obj 363 392 until;
#X obj 363 437 f;
#X obj 392 437 + 1;
#X msg 407 392 1;
#X obj 363 218 until;
#X obj 363 250 f;
#X obj 392 250 + 1;
#X msg 407 218 0;
#X msg 363 122 512;
#X obj 363 326 f;
#X text 395 148 array size;
#X obj 816 492 swap 1;
#X obj 816 521 /;
#X text 482 258 number of harmonics;
#X obj 798 548 *;
#X obj 446 624 +;
#X obj 478 624 f;
#X obj 363 174 t f b b f;
#X obj 363 353 t f b b;
#X msg 508 439 0;
#X obj 363 681 f;
#X obj 441 283 t f f;
#X floatatom 508 194 5 1 15 0 - - - 0;
#X obj 363 519 select;
#X obj 446 577 expr pow(-1 \, $f1) * sin(6.28319 * $f1 * $f2) / $f1
;
#X obj 363 280 t b f;
#X obj 648 480 t f f;
#X obj 363 466 t f f;
#X obj 83 524 unpack f f;
#X msg 83 496 511 0 \, 0 513 \, 1 514;
#X obj 116 342 until;
#X msg 116 317 512;
#X obj 116 372 f;
#X obj 146 373 + 1;
#X obj 116 397 t f f;
#X obj 148 421 + 1;
#X obj 155 458 pack f f;
#X msg 178 335 0;
#X obj 116 280 t b b;
#X obj 363 148 f;
#X text 547 114 see : https://en.wikipedia.org/wiki/Sawtooth_wave;
#X obj 363 705 expr -1 * $f1 / 6.28319;
#X obj 84 236 bng 15 250 50 0 empty empty empty 17 7 0 10 #fcfcfc #000000
#000000;
#X obj 84 256 t b b;
#X obj 692 274 array define sawtooth 515;
#X obj 83 572 array set sawtooth;
#X text 547 60 the sawtooth can be approximated from a fourier serie
using additive synthesis to generate a bandlimited waveshape \, which
allows the implementation of antialiasing oscillators;
#X obj 340 62 bng 15 250 50 0 empty empty empty 17 7 0 10 #fcfcfc #000000
#000000;
#X msg 508 168 15;
#X text 599 639 generate a period of the waveform, f 34;
#X text 49 617 generate a period of the waveform \, then copy the array
and duplicate 3 extra points for use with tabosc4~, f 49;
#X obj 340 37 loadbang;
#X obj 340 83 t b b b;
#X obj 363 732 array set \$0-sawtooth-tmp;
#X obj 692 247 array define \$0-sawtooth-tmp 512;
#X obj 83 548 array get \$0-sawtooth-tmp;
#X connect 0 0 1 0;
#X connect 1 0 2 0;
#X connect 1 0 27 0;
#X connect 2 0 1 1;
#X connect 3 0 1 1;
#X connect 4 0 5 0;
#X connect 5 0 6 0;
#X connect 5 0 25 0;
#X connect 6 0 5 1;
#X connect 7 0 5 1;
#X connect 8 0 39 0;
#X connect 9 0 18 0;
#X connect 11 0 12 0;
#X connect 11 1 12 1;
#X connect 12 0 14 1;
#X connect 14 0 24 1;
#X connect 15 0 16 0;
#X connect 15 0 20 1;
#X connect 16 0 15 1;
#X connect 17 0 4 0;
#X connect 17 1 7 0;
#X connect 17 3 11 0;
#X connect 18 0 0 0;
#X connect 18 1 3 0;
#X connect 18 2 19 0;
#X connect 19 0 15 1;
#X connect 20 0 41 0;
#X connect 21 0 9 1;
#X connect 21 1 23 1;
#X connect 22 0 21 0;
#X connect 23 0 20 0;
#X connect 24 0 15 0;
#X connect 25 0 9 0;
#X connect 25 1 26 0;
#X connect 26 0 53 1;
#X connect 26 1 14 0;
#X connect 27 0 23 0;
#X connect 27 1 24 0;
#X connect 28 0 55 0;
#X connect 28 1 45 1;
#X connect 29 0 28 0;
#X connect 30 0 32 0;
#X connect 31 0 30 0;
#X connect 32 0 33 0;
#X connect 32 0 34 0;
#X connect 33 0 32 1;
#X connect 34 0 36 0;
#X connect 34 1 35 0;
#X connect 35 0 36 1;
#X connect 36 0 28 0;
#X connect 37 0 32 1;
#X connect 38 0 31 0;
#X connect 38 1 37 0;
#X connect 39 0 17 0;
#X connect 41 0 53 0;
#X connect 42 0 43 0;
#X connect 43 0 29 0;
#X connect 43 1 38 0;
#X connect 47 0 52 0;
#X connect 48 0 22 0;
#X connect 51 0 47 0;
#X connect 52 0 42 0;
#X connect 52 1 8 0;
#X connect 52 2 48 0;
#X connect 55 0 45 0;
#X restore 33 43 pd sawtooth-wavetable-generator;
#N canvas 38 23 1026 797 square-wavetable-generator 0;
#X obj 363 392 until;
#X obj 363 437 f;
#X obj 392 437 + 1;
#X msg 407 392 1;
#X obj 363 218 until;
#X obj 363 250 f;
#X obj 392 250 + 1;
#X msg 407 218 0;
#X msg 363 122 512;
#X obj 363 326 f;
#X text 395 148 array size;
#X obj 846 495 swap 1;
#X obj 846 524 /;
#X text 482 258 number of harmonics;
#X obj 828 551 *;
#X obj 446 624 +;
#X obj 478 624 f;
#X obj 363 174 t f b b f;
#X obj 363 353 t f b b;
#X msg 508 439 0;
#X obj 363 681 f;
#X obj 441 283 t f f;
#X floatatom 508 194 5 1 15 0 - - - 0;
#X obj 363 519 select;
#X obj 363 280 t b f;
#X obj 648 480 t f f;
#X obj 363 466 t f f;
#X obj 83 524 unpack f f;
#X msg 83 496 511 0 \, 0 513 \, 1 514;
#X obj 116 342 until;
#X msg 116 317 512;
#X obj 116 372 f;
#X obj 146 373 + 1;
#X obj 116 397 t f f;
#X obj 148 421 + 1;
#X obj 155 458 pack f f;
#X msg 178 335 0;
#X obj 116 280 t b b;
#X obj 363 148 f;
#X obj 363 705 expr -1 * $f1 / 6.28319;
#X obj 84 236 bng 15 250 50 0 empty empty empty 17 7 0 10 #fcfcfc #000000
#000000;
#X obj 84 256 t b b;
#X obj 340 62 bng 15 250 50 0 empty empty empty 17 7 0 10 #fcfcfc #000000
#000000;
#X text 49 617 generate a period of the waveform \, then copy the array
and duplicate 3 extra points for use with tabosc4~, f 49;
#X obj 340 37 loadbang;
#X obj 340 83 t b b b;
#X text 547 60 the square can be approximated from a fourier serie
using additive synthesis to generate a bandlimited waveshape \, which
allows the implementation of antialiasing oscillators;
#X text 547 114 see : https://en.wikipedia.org/wiki/Square_wave;
#X obj 446 577 expr sin(6.28319 * (2 * $f1 - 1) * $f2) / (2 * $f1 -
1);
#X obj 692 274 array define square 515;
#X obj 692 247 array define \$0-square-tmp 512;
#X obj 363 732 array set \$0-square-tmp;
#X obj 83 572 array set square;
#X obj 83 548 array get \$0-square-tmp;
#X msg 508 168 15;
#X connect 0 0 1 0;
#X connect 1 0 2 0;
#X connect 1 0 26 0;
#X connect 2 0 1 1;
#X connect 3 0 1 1;
#X connect 4 0 5 0;
#X connect 5 0 6 0;
#X connect 5 0 24 0;
#X connect 6 0 5 1;
#X connect 7 0 5 1;
#X connect 8 0 38 0;
#X connect 9 0 18 0;
#X connect 11 0 12 0;
#X connect 11 1 12 1;
#X connect 12 0 14 1;
#X connect 14 0 48 1;
#X connect 15 0 16 0;
#X connect 15 0 20 1;
#X connect 16 0 15 1;
#X connect 17 0 4 0;
#X connect 17 1 7 0;
#X connect 17 3 11 0;
#X connect 18 0 0 0;
#X connect 18 1 3 0;
#X connect 18 2 19 0;
#X connect 19 0 15 1;
#X connect 20 0 39 0;
#X connect 21 0 9 1;
#X connect 21 1 23 1;
#X connect 22 0 21 0;
#X connect 23 0 20 0;
#X connect 24 0 9 0;
#X connect 24 1 25 0;
#X connect 25 0 51 1;
#X connect 25 1 14 0;
#X connect 26 0 23 0;
#X connect 26 1 48 0;
#X connect 27 0 53 0;
#X connect 27 1 52 1;
#X connect 28 0 27 0;
#X connect 29 0 31 0;
#X connect 30 0 29 0;
#X connect 31 0 32 0;
#X connect 31 0 33 0;
#X connect 32 0 31 1;
#X connect 33 0 35 0;
#X connect 33 1 34 0;
#X connect 34 0 35 1;
#X connect 35 0 27 0;
#X connect 36 0 31 1;
#X connect 37 0 30 0;
#X connect 37 1 36 0;
#X connect 38 0 17 0;
#X connect 39 0 51 0;
#X connect 40 0 41 0;
#X connect 41 0 28 0;
#X connect 41 1 37 0;
#X connect 42 0 45 0;
#X connect 44 0 42 0;
#X connect 45 0 40 0;
#X connect 45 1 8 0;
#X connect 45 2 54 0;
#X connect 48 0 15 0;
#X connect 53 0 52 0;
#X connect 54 0 22 0;
#X restore 33 66 pd square-wavetable-generator;
#X obj 311 301 map~ 1 0;
#X obj 378 207 ar-trig 1 10 0 300;
#X obj 424 239 adsr-trig 10 50 0.3 250;
#X obj 749 126 noise~;
#X obj 338 235 * 3;
#X obj 310 76 - 24;
#X obj 774 450 line~;
#X obj 697 494 *~;
#X obj 418 98 f;
#X obj 448 98 == 0;
#X obj 419 74 bng 15 250 50 0 empty empty empty 17 7 0 10 #fcfcfc #000000
#000000;
#X floatatom 421 123 5 0 0 0 - - - 0;
#X obj 603 28 sel 0 1;
#X obj 677 348 osc~ 60;
#X obj 774 425 adsr-trig 5 100 0.2 500;
#X obj 848 165 line~;
#X obj 834 204 *~;
#X obj 770 88 sig~ 1000;
#X obj 749 165 vcf~ 1;
#X floatatom 985 368 5 0 0 0 - - - 0;
#X obj 677 396 expr~ if($v1 > 0 \, 1-pow(1-$v1 \, $f2) \, pow(1+$v1
\, $f2)-1);
#X msg 677 300 60 \, 50 1000;
#X obj 677 324 line~;
#X obj 677 372 *~ 0.25;
#X floatatom 770 66 5 0 0 0 - - - 0;
#X obj 698 238 t b b;
#X floatatom 856 73 5 0 0 0 - - - 0;
#X obj 848 140 adsr-trig 3 20 0.05 200;
#X obj 306 235 * 5;
#X obj 425 344 loadbang;
#X msg 425 366 3;
#X obj 984 319 loadbang;
#X msg 984 341 2;
#X obj 179 266 tabosc4~ sawtooth;
#X text 784 484 slightly distorted kick;
#X text 894 192 could be snare or hi hat;
#X text 160 328 bassliner;
#X connect 1 0 21 0;
#X connect 2 0 11 0;
#X connect 3 0 11 1;
#X connect 4 0 22 0;
#X connect 4 1 23 0;
#X connect 5 0 49 0;
#X connect 5 1 25 0;
#X connect 6 0 10 0;
#X connect 6 1 4 0;
#X connect 7 0 54 0;
#X connect 8 0 7 0;
#X connect 9 0 2 2;
#X connect 10 0 8 0;
#X connect 10 1 5 0;
#X connect 11 0 12 0;
#X connect 12 0 17 0;
#X connect 12 0 17 1;
#X connect 13 0 12 1;
#X connect 14 0 13 0;
#X connect 15 0 6 0;
#X connect 16 0 14 0;
#X connect 18 0 26 0;
#X connect 18 0 31 0;
#X connect 21 0 2 1;
#X connect 22 0 1 0;
#X connect 23 0 3 0;
#X connect 24 0 39 0;
#X connect 25 0 21 4;
#X connect 26 0 15 0;
#X connect 27 0 28 1;
#X connect 28 0 12 0;
#X connect 29 0 30 0;
#X connect 29 0 32 0;
#X connect 30 0 29 1;
#X connect 31 0 29 0;
#X connect 32 0 33 0;
#X connect 33 0 46 0;
#X connect 33 1 48 0;
#X connect 34 0 44 0;
#X connect 35 0 27 0;
#X connect 36 0 37 1;
#X connect 37 0 12 0;
#X connect 38 0 39 1;
#X connect 39 0 37 0;
#X connect 40 0 41 1;
#X connect 41 0 28 0;
#X connect 42 0 43 0;
#X connect 43 0 34 0;
#X connect 44 0 41 0;
#X connect 45 0 38 0;
#X connect 46 0 42 0;
#X connect 46 1 35 0;
#X connect 47 0 39 2;
#X connect 48 0 36 0;
#X connect 49 0 21 3;
#X connect 50 0 51 0;
#X connect 51 0 9 0;
#X connect 52 0 53 0;
#X connect 53 0 40 0;
#X connect 54 0 2 0;
