#N canvas 110 143 450 300 12;
#X obj 79 138 noise~;
#X obj 178 177 line~;
#X obj 141 222 *~;
#X obj 100 100 sig~ 1000;
#X obj 79 177 vcf~ 1;
#X floatatom 100 78 5 0 0 0 - - - 0;
#X floatatom 186 85 5 0 0 0 - - - 0;
#X floatatom 348 121 5 0 0 0 - - - 0;
#X obj 178 152 ../utilities/adsr-trig 3 20 0.05 200;
#X obj 170 17 inlet;
#X obj 152 255 outlet~;
#X connect 0 0 4 0;
#X connect 1 0 2 1;
#X connect 2 0 10 0;
#X connect 3 0 4 1;
#X connect 4 0 2 0;
#X connect 5 0 3 0;
#X connect 6 0 4 2;
#X connect 7 0 8 4;
#X connect 8 0 1 0;
#X connect 9 0 8 0;
