#N canvas 536 410 524 362 12;
#X obj 128 270 *~ 1;
#X obj 77 58 *~ 1;
#X obj 77 31 inlet~;
#X obj 128 296 outlet~;
#X obj 193 161 delread4~ \$0-delay;
#X obj 193 251 delwrite~ \$0-delay 1000;
#X obj 193 136 line~;
#X msg 193 112 \$1 10;
#X obj 193 31 inlet;
#X obj 272 31 inlet;
#X obj 272 135 line~;
#X msg 272 111 \$1 10;
#X obj 193 198 *~;
#X obj 211 59 f \$1;
#X obj 284 59 f \$2;
#X obj 272 86 clip 0 0.99;
#X obj 353 60 loadbang;
#X connect 0 0 3 0;
#X connect 1 0 0 0;
#X connect 1 0 5 0;
#X connect 2 0 1 0;
#X connect 4 0 12 0;
#X connect 6 0 4 0;
#X connect 7 0 6 0;
#X connect 8 0 7 0;
#X connect 9 0 15 0;
#X connect 10 0 12 1;
#X connect 11 0 10 0;
#X connect 12 0 0 0;
#X connect 12 0 5 0;
#X connect 13 0 7 0;
#X connect 14 0 15 0;
#X connect 15 0 11 0;
#X connect 16 0 14 0;
#X connect 16 0 13 0;
