#N canvas 672 39 450 300 12;
#X obj 161 204 +~;
#X obj 145 127 osc~;
#X obj 178 177 *~;
#X obj 161 229 osc~;
#X obj 42 82 line~;
#X msg 42 60 \$1 10;
#X obj 262 82 line~;
#X msg 262 60 \$1 10;
#X obj 145 82 line~;
#X msg 145 60 \$1 10;
#X obj 204 127 *~;
#X obj 161 258 outlet~;
#X obj 42 28 inlet carrier;
#X obj 145 28 inlet modulator;
#X obj 262 28 inlet amplitude;
#X connect 0 0 3 0;
#X connect 1 0 2 0;
#X connect 2 0 0 1;
#X connect 3 0 11 0;
#X connect 4 0 0 0;
#X connect 5 0 4 0;
#X connect 6 0 10 1;
#X connect 7 0 6 0;
#X connect 8 0 1 0;
#X connect 8 0 10 0;
#X connect 9 0 8 0;
#X connect 10 0 2 1;
#X connect 12 0 5 0;
#X connect 13 0 9 0;
#X connect 14 0 7 0;
