#N canvas 92 117 440 536 12;
#X obj 213 138 *~;
#X obj 187 193 osc~;
#X obj 263 192 *~;
#X obj 223 241 *~;
#X obj 160 375 +~;
#X obj 160 396 osc~;
#X obj 138 465 outlet~;
#X obj 267 37 inlet~;
#X obj 342 37 inlet~;
#X obj 61 34 inlet~;
#X text 273 59 m ratio;
#X text 355 58 m index;
#X obj 223 282 +~;
#X text 117 54 carrier freq;
#X connect 0 0 2 0;
#X connect 0 0 1 0;
#X connect 1 0 3 0;
#X connect 2 0 3 1;
#X connect 3 0 12 0;
#X connect 4 0 5 0;
#X connect 5 0 6 0;
#X connect 7 0 0 1;
#X connect 8 0 2 1;
#X connect 9 0 0 0;
#X connect 9 0 4 0;
#X connect 12 0 4 1;
