#N canvas 386 140 881 597 12;
#X declare -path ./utilities;
#X obj 243 413 fm-unit;
#X obj 290 472 *~;
#X obj 308 275 line~;
#X obj 140 246 mtof;
#X obj 140 294 line~;
#X obj 140 271 pack f f;
#X obj 243 439 *~ 0.2;
#X obj 483 276 line~;
#X obj 34 25 declare -path ./utilities;
#X obj 308 251 adsr-trig 10 50 0.5 300;
#X obj 483 251 adsr-trig 10 50 0.5 300;
#X obj 483 310 map~ 0 1 10 1;
#X obj 249 29 inlet;
#X obj 211 271 f;
#X obj 156 155 t f b b b;
#X obj 556 160 route attack release min max;
#X obj 273 528 throw~ fm-voice-out;
#X obj 249 52 route pitch;
#X obj 323 100 route mratio volume mindex;
#X obj 398 160 route attack release;
#X obj 339 308 route float;
#X obj 308 438 *~;
#X obj 339 353 line~;
#X msg 339 331 \$1 10;
#X connect 0 0 6 0;
#X connect 1 0 16 0;
#X connect 2 0 21 0;
#X connect 3 0 5 0;
#X connect 4 0 0 0;
#X connect 5 0 4 0;
#X connect 6 0 1 0;
#X connect 7 0 11 0;
#X connect 9 0 2 0;
#X connect 10 0 7 0;
#X connect 11 0 0 2;
#X connect 12 0 17 0;
#X connect 13 0 0 1;
#X connect 14 0 3 0;
#X connect 14 1 13 0;
#X connect 14 2 9 0;
#X connect 14 3 10 0;
#X connect 15 0 10 1;
#X connect 15 1 10 4;
#X connect 15 2 11 3;
#X connect 15 3 11 4;
#X connect 17 0 14 0;
#X connect 17 1 18 0;
#X connect 18 0 13 1;
#X connect 18 1 19 0;
#X connect 18 2 15 0;
#X connect 19 0 9 1;
#X connect 19 1 9 4;
#X connect 19 2 20 0;
#X connect 20 0 23 0;
#X connect 21 0 1 1;
#X connect 22 0 21 1;
#X connect 23 0 22 0;
