#N canvas 433 193 558 553 12;
#X obj 99 155 -;
#X obj 99 232 sel 1;
#X obj 99 209 change;
#X obj 282 278 >;
#X obj 261 227 t f f f;
#X obj 97 114 t f f f;
#X obj 243 361 f;
#X obj 282 301 change;
#X obj 282 324 sel 0;
#X obj 168 424 spigot;
#X msg 207 361 1;
#X obj 168 448 t f b;
#X msg 228 422 0;
#X obj 99 185 > 0.05;
#X obj 97 20 inlet;
#X obj 168 472 * 0.5;
#X obj 99 508 outlet;
#X obj 99 291 t b b;
#X obj 168 508 outlet;
#X obj 97 46 route float;
#X obj 209 138 route threshold debounce;
#X obj 221 28 f \$1;
#X obj 348 27 f \$2;
#X obj 221 52 sel 0;
#X msg 253 87 threshold \$1;
#X msg 348 87 debounce \$1;
#X obj 277 57 loadbang;
#X obj 99 255 speedlimit 50;
#X obj 348 51 clip 10 1000;
#X connect 0 0 13 0;
#X connect 1 0 27 0;
#X connect 2 0 1 0;
#X connect 3 0 7 0;
#X connect 4 0 6 1;
#X connect 4 1 3 1;
#X connect 4 2 3 0;
#X connect 5 0 0 1;
#X connect 5 1 0 0;
#X connect 5 2 4 0;
#X connect 6 0 9 0;
#X connect 7 0 8 0;
#X connect 8 0 6 0;
#X connect 9 0 11 0;
#X connect 10 0 9 1;
#X connect 11 0 15 0;
#X connect 11 1 12 0;
#X connect 12 0 9 1;
#X connect 13 0 2 0;
#X connect 14 0 19 0;
#X connect 15 0 18 0;
#X connect 17 0 16 0;
#X connect 17 1 10 0;
#X connect 19 0 5 0;
#X connect 19 1 20 0;
#X connect 20 0 13 1;
#X connect 20 1 27 1;
#X connect 21 0 23 0;
#X connect 22 0 28 0;
#X connect 23 1 24 0;
#X connect 24 0 20 0;
#X connect 25 0 20 0;
#X connect 26 0 22 0;
#X connect 26 0 21 0;
#X connect 27 0 17 0;
#X connect 28 0 25 0;
