#N canvas 545 358 450 300 12;
#X obj 93 26 inlet;
#X obj 92 214 outlet;
#X obj 92 160 t a b;
#X obj 145 52 t b b;
#X obj 92 132 spigot 1;
#X obj 177 75 delay \$1;
#X obj 230 23 inlet;
#X msg 145 98 0;
#X msg 177 98 1;
#X connect 0 0 4 0;
#X connect 2 0 1 0;
#X connect 2 1 3 0;
#X connect 3 0 7 0;
#X connect 3 1 5 0;
#X connect 4 0 2 0;
#X connect 5 0 8 0;
#X connect 6 0 5 1;
#X connect 7 0 4 1;
#X connect 8 0 4 1;
