#N canvas 0 23 984 565 12;
#X obj 81 391 vsl 30 95 0 1 0 0 empty empty empty 0 -9 0 10 #fcfcfc
#000000 #000000 0 0;
#N canvas 0 22 450 278 (subpatch) 0;
#X array env-display 128 float 1;
#A 0 0 0 0 0 0 0 0 0 0 0 0 0 0 0 0 0 0 0 0 0 0 0 0 0 0 0 0 0 0 0 0
0 0 0 0 0 0 0 0 0 0 0 0 0 0 0 0 0 0 0 0 0 0 0 0 0 0 0 0 0 0 0 0 0 0
0 0 0 0 0 0 0 0 0 0 0 0 0 0 0 0 0 0 0 0 0 0 0 0 0 0 0 0 0 0 0 0 0 0
0 0 0 0 0 0 0 0 0 0 0 0 0 0 0 0 0 0 0 0 0 0 0 0 0 0 0 0 0;
#X coords 0 1 127 0 200 100 1 0 0;
#X restore 275 389 graph;
#X obj 186 222 tgl 15 0 empty empty empty 17 7 0 10 #fcfcfc #000000
#000000 0 1;
#X obj 81 366 line;
#X obj 190 366 osc~ 120;
#X obj 158 421 *~;
#X obj 135 366 line~;
#X obj 190 390 *~ 0.1;
#X obj 135 468 dac~ 1 2;
#X obj 186 244 ../utilities/adsr 20 100 0.5 500;
#X text 41 24 un opérateur fondamental dans le design de systèmes
musicaux est le générateur d'enveloppe;
#N canvas 0 23 594 533 write-to-env-display 0;
#X obj 135 378 list split 1;
#X obj 135 230 t l l;
#X obj 226 263 list length;
#X obj 135 349 spigot;
#X obj 187 349 spigot;
#X obj 226 317 == 0;
#X obj 362 288 t a;
#X obj 135 206 list prepend;
#X obj 119 157 f;
#X obj 64 86 tgl 15 0 empty empty empty 17 7 0 10 #fcfcfc #000000 #000000
0 1;
#X obj 226 289 > 128;
#X floatatom 273 83 5 0 0 1 queue\ size - - 0;
#X obj 244 180 t b f;
#X obj 64 106 metro 20;
#X obj 64 62 loadbang;
#X obj 137 62 inlet value;
#X obj 362 378 array set env-display;
#X obj 322 171 array size env-display;
#X connect 0 1 6 0;
#X connect 1 0 3 0;
#X connect 1 0 4 0;
#X connect 1 1 2 0;
#X connect 2 0 10 0;
#X connect 3 0 0 0;
#X connect 4 0 6 0;
#X connect 5 0 4 1;
#X connect 6 0 7 1;
#X connect 6 0 16 0;
#X connect 7 0 1 0;
#X connect 8 0 7 0;
#X connect 9 0 13 0;
#X connect 10 0 3 1;
#X connect 10 0 5 0;
#X connect 11 0 12 0;
#X connect 11 0 17 0;
#X connect 12 0 7 1;
#X connect 12 1 10 1;
#X connect 13 0 8 0;
#X connect 14 0 9 0;
#X connect 15 0 8 1;
#X restore 81 498 pd write-to-env-display;
#X text 41 59 un générateur d'enveloppe peut servir à contrôler
l'évolution dans le temps de divers paramètres perceptifs et notamment
l'amplitude du son \, ce qui permet de générer des évènements ayant
une durée finie dans le temps tels que des notes de musique;
#X floatatom 241 219 5 0 0 0 - - - 0;
#X floatatom 296 219 5 0 0 0 - - - 0;
#X floatatom 351 219 5 0 0 0 - - - 0;
#X floatatom 407 219 5 0 0 0 - - - 0;
#X obj 185 299 ../utilities/adsr-trig 20 100 0.3 1000;
#X obj 185 277 bng 15 250 50 0 empty empty empty 17 7 0 10 #fcfcfc
#000000 #000000;
#X obj 81 342 t a a;
#X text 41 151 ci-dessous deux générateurs d'enveloppe ADSR (Attack
Decay Sustain Release) \, utilisés pour contrôler l'amplitude d'une
simple sinusoide :;
#X text 63 221 version on/off :;
#X text 41 276 version "triggée" :;
#X floatatom 250 274 5 0 0 0 - - - 0;
#X floatatom 316 274 5 0 0 0 - - - 0;
#X floatatom 382 274 5 0 0 0 - - - 0;
#X floatatom 448 274 5 0 0 0 - - - 0;
#X obj 567 199 dbtorms;
#X obj 567 148 adc~ 1;
#X obj 567 176 env~ 4096 2048;
#X obj 567 337 line;
#X obj 567 297 pack f f;
#X obj 620 273 timer;
#X obj 620 250 t b b;
#X obj 567 362 vsl 15 128 0 1 0 0 empty empty empty 0 -9 0 10 #fcfcfc
#000000 #000000 0 0;
#X obj 609 337 line~;
#X obj 609 470 *~;
#X obj 669 337 noise~;
#X obj 669 360 *~ 0.1;
#X obj 609 511 dac~ 1 2;
#X obj 567 222 clip 0 1;
#X obj 656 438 vcf~ 10 100;
#X obj 693 412 ../utilities/map~ 0 1 500 1000;
#X obj 501 19 bng 15 250 50 0 empty empty empty 17 7 0 10 #fcfcfc #000000
#000000;
#X obj 501 526 bng 15 250 50 0 empty empty empty 17 7 0 10 #fcfcfc
#000000 #000000;
#X text 536 23 l'enveloppe dynamique d'un signal audio peut également
s'avérer très intéressante pour contrôler des paramètres sonores
en temps réel;
#X text 536 74 ici l'enveloppe dynamique d'une entrée audio de la
carte son est utilisée pour piloter à la fois la fréquence d'un
filtre résonant appliqué à un générateur de bruit blanc et le
volume de sortie du filtre;
#X connect 0 0 11 0;
#X connect 2 0 9 0;
#X connect 3 0 0 0;
#X connect 4 0 7 0;
#X connect 5 0 8 0;
#X connect 5 0 8 1;
#X connect 6 0 5 0;
#X connect 7 0 5 1;
#X connect 9 0 19 0;
#X connect 13 0 9 1;
#X connect 14 0 9 2;
#X connect 15 0 9 3;
#X connect 16 0 9 4;
#X connect 17 0 19 0;
#X connect 18 0 17 0;
#X connect 19 0 3 0;
#X connect 19 1 6 0;
#X connect 23 0 17 1;
#X connect 24 0 17 2;
#X connect 25 0 17 3;
#X connect 26 0 17 4;
#X connect 27 0 40 0;
#X connect 28 0 29 0;
#X connect 29 0 27 0;
#X connect 30 0 34 0;
#X connect 31 0 30 0;
#X connect 31 0 35 0;
#X connect 32 0 31 1;
#X connect 33 0 32 0;
#X connect 33 1 32 1;
#X connect 35 0 36 0;
#X connect 35 0 42 0;
#X connect 36 0 39 0;
#X connect 36 0 39 1;
#X connect 37 0 38 0;
#X connect 38 0 41 0;
#X connect 40 0 33 0;
#X connect 40 0 31 0;
#X connect 41 0 36 1;
#X connect 42 0 41 1;
#X connect 43 0 44 0;
