#N canvas 1 23 941 621 12;
#X obj 41 413 mtof;
#X obj 41 493 ftom;
#X floatatom 77 365 5 0 0 0 - - - 0;
#X floatatom 39 163 5 0 0 0 - - - 0;
#X floatatom 41 440 5 0 0 0 - - - 0;
#X obj 39 199 log 2;
#X floatatom 41 567 5 0 0 0 - - - 0;
#X obj 39 223 * 12;
#X floatatom 39 257 5 0 0 0 - - - 0;
#X floatatom 39 96 5 0 0 0 - - - 0;
#X text 81 96 valeur de transposition en demi-tons;
#X text 83 214 transformation inverse;
#X obj 39 129 expr pow(2 \, $f1 / 12);
#X floatatom 118 440 5 0 0 0 - - - 0;
#X floatatom 118 567 5 0 0 0 - - - 0;
#X obj 118 413 expr 440 * pow(2 \, ($f1 - 69) / 12);
#X obj 118 489 log 2;
#X obj 118 535 + 69;
#X obj 118 512 * 12;
#X obj 118 466 / 440;
#X text 81 413 <=>;
#X text 80 493 <=>;
#X obj 459 14 bng 15 250 50 0 empty empty empty 17 7 0 10 #fcfcfc #000000
#000000;
#X obj 459 579 bng 15 250 50 0 empty empty empty 17 7 0 10 #fcfcfc
#000000 #000000;
#X text 23 22 les formules suivantes sont issues de la définition
du tempérament égal à 12 intervalles \, popularisée par JS Bach
au début du 18ème siècle avec son "clavier bien tempéré";
#N canvas 248 280 687 279 keyboard 0;
#X msg 85 135 60;
#X msg 116 135 61;
#X msg 146 135 62;
#X msg 177 135 63;
#X msg 208 135 64;
#X msg 238 135 65;
#X msg 269 135 66;
#X msg 300 135 67;
#X msg 330 135 68;
#X msg 361 135 69;
#X msg 392 135 70;
#X msg 422 135 71;
#X obj 330 218 outlet;
#X obj 141 26 key;
#X floatatom 173 27 5 0 0 0 - - - 0;
#X msg 453 135 72;
#X msg 483 135 73;
#X msg 514 135 74;
#X msg 545 135 75;
#X msg 575 135 76;
#X obj 141 58 sel 113 122 115 101 100 102 116 103 121 104 117 106 107
111 108 112 109;
#X connect 0 0 12 0;
#X connect 1 0 12 0;
#X connect 2 0 12 0;
#X connect 3 0 12 0;
#X connect 4 0 12 0;
#X connect 5 0 12 0;
#X connect 6 0 12 0;
#X connect 7 0 12 0;
#X connect 8 0 12 0;
#X connect 9 0 12 0;
#X connect 10 0 12 0;
#X connect 11 0 12 0;
#X connect 13 0 14 0;
#X connect 13 0 20 0;
#X connect 15 0 12 0;
#X connect 16 0 12 0;
#X connect 17 0 12 0;
#X connect 18 0 12 0;
#X connect 19 0 12 0;
#X connect 20 0 0 0;
#X connect 20 1 1 0;
#X connect 20 2 2 0;
#X connect 20 3 3 0;
#X connect 20 4 4 0;
#X connect 20 5 5 0;
#X connect 20 6 6 0;
#X connect 20 7 7 0;
#X connect 20 8 8 0;
#X connect 20 9 9 0;
#X connect 20 10 10 0;
#X connect 20 11 11 0;
#X connect 20 12 15 0;
#X connect 20 13 16 0;
#X connect 20 14 17 0;
#X connect 20 15 18 0;
#X connect 20 16 19 0;
#X restore 575 91 pd keyboard;
#X obj 563 231 mtof;
#X obj 565 358 dac~ 1 2;
#X obj 627 267 line~;
#X obj 575 200 t f b;
#X obj 588 312 *~;
#X obj 563 279 *~ 0.1;
#X obj 563 255 osc~;
#X msg 627 244 1 \, 0 500;
#X floatatom 575 176 5 0 0 0 - - - 0;
#X obj 575 139 spigot;
#X obj 614 120 tgl 15 0 empty empty empty 17 7 0 10 #fcfcfc #000000
#000000 0 1;
#X text 81 170 pour obtenir la fréquence transposée;
#X text 81 156 valeur par laquelle multiplier une fréquence donnée
;
#X text 633 118 activer la réception des touches;
#X text 21 304 la norme MIDI définit le LA 440 Hz comme étant la
note 69 \, les objets [mtof] et [ftom] sont basés sur cette définition
et les formules précédentes;
#X text 501 19 exemple d'utilisation de l'objet [mtof] : un oscillateur
jouant des notes bien tempérées depuis le clavier (azerty) de l'ordinateur
:;
#X connect 0 0 4 0;
#X connect 1 0 6 0;
#X connect 2 0 0 0;
#X connect 2 0 15 0;
#X connect 3 0 5 0;
#X connect 4 0 1 0;
#X connect 5 0 7 0;
#X connect 7 0 8 0;
#X connect 9 0 12 0;
#X connect 12 0 3 0;
#X connect 13 0 19 0;
#X connect 15 0 13 0;
#X connect 16 0 18 0;
#X connect 17 0 14 0;
#X connect 18 0 17 0;
#X connect 19 0 16 0;
#X connect 22 0 23 0;
#X connect 25 0 35 0;
#X connect 26 0 32 0;
#X connect 28 0 30 1;
#X connect 29 0 26 0;
#X connect 29 1 33 0;
#X connect 30 0 27 0;
#X connect 30 0 27 1;
#X connect 31 0 30 0;
#X connect 32 0 31 0;
#X connect 33 0 28 0;
#X connect 34 0 29 0;
#X connect 35 0 34 0;
#X connect 36 0 35 1;
