#N canvas 0 25 562 499 12;
#X declare -path is -path ../../pure-data/utilities;
#X obj 104 146 helloworld~;
#X obj 88 191 mix2~;
#X obj 137 191 hsl 128 15 0 1 0 0 empty empty empty -2 -8 0 10 #fcfcfc
#000000 #000000 0 0;
#X obj 88 299 *~;
#X obj 116 271 line~;
#X msg 116 248 \$1 5;
#X obj 119 228 hsl 128 15 0 1 0 0 empty empty empty -2 -8 0 10 #fcfcfc
#000000 #000000 0 0;
#X obj 70 339 dac~ 1 2;
#X obj 88 112 osc~ 440;
#X obj 16 15 declare -path is -path ../../pure-data/utilities;
#X connect 0 0 1 1;
#X connect 1 0 3 0;
#X connect 2 0 1 2;
#X connect 3 0 7 0;
#X connect 3 0 7 1;
#X connect 4 0 3 1;
#X connect 5 0 4 0;
#X connect 6 0 5 0;
#X connect 8 0 1 0;
#X connect 8 0 0 0;
