#N canvas 3 25 785 597 12;
#X declare -path is -path ../../pure-data/utilities;
#X obj 417 269 line~;
#X msg 417 245 \$1 10;
#X obj 420 225 hsl 128 15 0 1 0 0 empty empty empty -2 -8 0 10 #fcfcfc
#000000 #000000 0 0;
#X obj 340 390 dac~ 1 2;
#X floatatom 261 141 5 0 0 0 - - - 0;
#X obj 366 336 *~;
#X msg 429 173 shape \$1;
#X obj 429 150 symbol;
#X msg 444 106 square;
#X msg 369 106 sine;
#X msg 410 106 saw;
#X msg 499 106 triangle;
#X obj 23 17 declare -path is -path ../../pure-data/utilities;
#X obj 450 389 temporal-display shape;
#N canvas 179 204 450 300 max-partial-frequency 0;
#X obj 147 146 expr ($f2 * 2 - 1) * $f1;
#X obj 103 110 expr $f2 * $f1;
#X obj 93 19 inlet;
#X obj 214 22 inlet;
#X obj 214 46 t b f;
#X obj 84 258 outlet;
#X obj 189 258 outlet;
#X connect 0 0 6 0;
#X connect 1 0 5 0;
#X connect 2 0 1 0;
#X connect 2 0 0 0;
#X connect 3 0 4 0;
#X connect 4 0 1 0;
#X connect 4 0 0 0;
#X connect 4 1 1 1;
#X connect 4 1 0 1;
#X restore 63 367 pd max-partial-frequency;
#X floatatom 63 455 10 0 0 0 saw - - 0;
#X floatatom 228 339 5 0 0 0 nb\ harmonics - - 0;
#X floatatom 228 417 10 0 0 0 square\ and\ triangle - - 0;
#X msg 325 173 harmonics \$1;
#X floatatom 325 141 5 0 0 0 - - - 0;
#X floatatom 63 339 5 0 0 0 f0 - - 0;
#X obj 261 197 line~;
#X msg 261 174 \$1 10;
#X obj 325 245 blosc~;
#X obj 261 86 loadbang;
#X msg 261 110 440;
#X obj 325 270 *~ 0.2;
#X connect 0 0 5 1;
#X connect 1 0 0 0;
#X connect 2 0 1 0;
#X connect 4 0 20 0;
#X connect 4 0 22 0;
#X connect 5 0 3 1;
#X connect 5 0 3 0;
#X connect 5 0 13 0;
#X connect 6 0 23 0;
#X connect 7 0 6 0;
#X connect 8 0 7 0;
#X connect 9 0 7 0;
#X connect 10 0 7 0;
#X connect 11 0 7 0;
#X connect 14 0 15 0;
#X connect 14 1 17 0;
#X connect 16 0 14 1;
#X connect 18 0 23 0;
#X connect 19 0 18 0;
#X connect 19 0 16 0;
#X connect 20 0 14 0;
#X connect 21 0 23 0;
#X connect 22 0 21 0;
#X connect 23 0 26 0;
#X connect 24 0 25 0;
#X connect 25 0 4 0;
#X connect 26 0 5 0;
