#N canvas 1 25 919 721 12;
#X declare -path is -path ../../pure-data/utilities -path ../../pure-data/sounds
;
#X obj 66 626 declare -path is -path ../../pure-data/utilities -path
../../pure-data/sounds;
#X obj 361 402 blosc~;
#X obj 498 323 line~;
#X obj 385 270 mtof;
#X obj 385 318 line~;
#X obj 408 240 t f b;
#X obj 422 405 *~;
#X obj 252 32 metro 120;
#X obj 252 10 tgl 15 0 empty empty play\\\ me 17 7 0 10 #ff0400 #ffffff
#000000 0 1;
#X obj 507 625 *~;
#X obj 592 570 line~;
#X msg 592 547 \$1 5;
#X obj 595 527 hsl 128 15 0 1 0 0 empty empty raise\\\ me -2 -8 0 10
#ff0400 #ffffff #000000 0 0;
#X obj 489 665 dac~ 1 2;
#X obj 436 494 *~;
#X obj 465 457 line~;
#X obj 385 294 pack f f;
#X floatatom 605 321 5 0 0 0 - - - 0;
#X floatatom 564 321 5 0 0 0 - - - 0;
#X obj 466 433 adsr-trig 10 50 0.5 500;
#X obj 466 269 t b b;
#X obj 390 447 vcf~ 20;
#N canvas 63 88 519 453 random-list-elt 0;
#X obj 187 150 list;
#X msg 299 71 0 7 9 10;
#X obj 249 207 list length;
#X obj 210 254 random;
#X obj 143 279 list split;
#X msg 176 304 \$1;
#X obj 187 174 t l b l;
#X obj 187 117 bng 15 250 50 0 empty empty empty 17 7 0 10 #fcfcfc
#000000 #000000;
#X obj 299 44 loadbang;
#X msg 311 99 0 4 8 12;
#X obj 187 29 inlet;
#X obj 233 29 inlet;
#X obj 176 329 outlet;
#X connect 0 0 6 0;
#X connect 1 0 0 1;
#X connect 2 0 3 1;
#X connect 3 0 4 1;
#X connect 4 1 5 0;
#X connect 5 0 12 0;
#X connect 6 0 4 0;
#X connect 6 1 3 0;
#X connect 6 2 2 0;
#X connect 7 0 0 0;
#X connect 8 0 1 0;
#X connect 9 0 0 1;
#X connect 10 0 7 0;
#X connect 11 0 0 1;
#X restore 294 134 pd random-list-elt;
#X msg 455 43 0 2 3 7 8 12;
#X floatatom 485 213 5 0 0 1 portamento - - 0;
#X floatatom 414 158 5 0 0 0 - - - 0;
#N canvas 92 117 450 300 random-octave 0;
#X obj 174 177 * 12;
#X obj 142 131 t f b;
#X obj 149 203 +;
#X obj 121 52 inlet;
#X obj 149 255 outlet;
#X obj 222 52 inlet;
#X obj 222 101 int;
#X obj 174 154 random 1;
#X obj 222 75 clip 1 1000;
#X connect 0 0 2 1;
#X connect 1 0 2 0;
#X connect 1 1 7 0;
#X connect 2 0 4 0;
#X connect 3 0 1 0;
#X connect 5 0 8 0;
#X connect 6 0 7 1;
#X connect 7 0 0 0;
#X connect 8 0 6 0;
#X restore 294 158 pd random-octave;
#X obj 294 229 +;
#X obj 312 206 * 12;
#X obj 498 294 adsr-trig 10 100 0.5 500;
#X obj 498 351 map~ 0 1 1 10;
#X msg 467 67 0 3 6 9 12;
#X msg 484 91 0 2 4 6 8 10 12;
#X floatatom 349 206 5 0 0 0 - - - 0;
#X obj 670 180 random 10;
#X obj 715 203 random 10;
#X obj 663 141 t b b;
#X msg 234 418 harmonics \$1;
#X floatatom 234 396 5 0 0 0 - - - 0;
#X msg 285 339 shape saw;
#X msg 268 363 shape square;
#X msg 234 341 15;
#X obj 249 304 loadbang;
#X obj 715 227 + 5;
#N canvas 232 68 1030 715 drumkit 0;
#X obj 38 171 soundfiler;
#X obj 38 82 symbol;
#X obj 38 33 loadbang;
#X msg 105 194 \$1;
#X obj 38 194 t f f;
#X obj 87 226 /;
#X obj 673 448 line~;
#X msg 673 425 0 \, 1 \$1;
#X obj 673 401 f;
#X obj 673 473 *~;
#X obj 704 369 * 1000;
#X msg 38 116 read -resize \$1 kickarray;
#X msg 38 58 drumkit/808-kick_mid.wav;
#X obj 38 8 array define kickarray;
#X obj 673 499 tabread~ kickarray;
#X obj 496 433 line~;
#X msg 496 410 0 \, 1 \$1;
#X obj 496 386 f;
#X obj 496 458 *~;
#X obj 527 354 * 1000;
#X obj 496 484 tabread~ snarearray;
#X obj 235 171 soundfiler;
#X obj 235 82 symbol;
#X obj 235 33 loadbang;
#X msg 302 194 \$1;
#X obj 235 194 t f f;
#X obj 284 226 /;
#X obj 235 8 array define snarearray;
#X msg 235 58 drumkit/808-clave.wav;
#X msg 235 116 read -resize \$1 snarearray;
#X obj 644 591 outlet~;
#X obj 533 52 inlet;
#X obj 504 116 % 8;
#X obj 657 291 spigot;
#X obj 691 316 t b 0;
#X msg 699 262 1;
#X obj 467 212 sel 4;
#X obj 608 163 sel 0;
#X obj 578 218 sel 7;
#X obj 696 74 inlet;
#X obj 683 189 spigot;
#X obj 633 189 spigot;
#X obj 708 159 == 0;
#X obj 533 75 t f f;
#X obj 638 121 > 15;
#X obj 673 524 *~ 0.8;
#X obj 284 250 s \$0-snareduration;
#X obj 235 275 s \$0-snarensamples;
#X obj 87 250 s \$0-kickduration;
#X obj 38 275 s \$0-kicknsamples;
#X obj 704 346 r \$0-kickduration;
#X obj 702 473 r \$0-kicknsamples;
#X obj 527 331 r \$0-snareduration;
#X obj 525 458 r \$0-snarensamples;
#X connect 0 0 4 0;
#X connect 0 1 3 0;
#X connect 1 0 11 0;
#X connect 2 0 12 0;
#X connect 3 0 5 1;
#X connect 4 0 49 0;
#X connect 4 1 5 0;
#X connect 5 0 48 0;
#X connect 6 0 9 0;
#X connect 7 0 6 0;
#X connect 8 0 7 0;
#X connect 9 0 14 0;
#X connect 10 0 8 1;
#X connect 11 0 0 0;
#X connect 12 0 1 0;
#X connect 14 0 45 0;
#X connect 15 0 18 0;
#X connect 16 0 15 0;
#X connect 17 0 16 0;
#X connect 18 0 20 0;
#X connect 19 0 17 1;
#X connect 20 0 30 0;
#X connect 21 0 25 0;
#X connect 21 1 24 0;
#X connect 22 0 29 0;
#X connect 23 0 28 0;
#X connect 24 0 26 1;
#X connect 25 0 47 0;
#X connect 25 1 26 0;
#X connect 26 0 46 0;
#X connect 28 0 22 0;
#X connect 29 0 21 0;
#X connect 31 0 43 0;
#X connect 32 0 36 0;
#X connect 32 0 37 0;
#X connect 32 0 38 0;
#X connect 33 0 34 0;
#X connect 34 0 8 0;
#X connect 34 1 33 1;
#X connect 35 0 33 1;
#X connect 36 0 17 0;
#X connect 37 0 41 0;
#X connect 38 0 35 0;
#X connect 39 0 40 0;
#X connect 40 0 33 0;
#X connect 41 0 33 0;
#X connect 42 0 41 1;
#X connect 43 0 32 0;
#X connect 43 1 44 0;
#X connect 44 0 40 1;
#X connect 44 0 42 0;
#X connect 45 0 30 0;
#X connect 50 0 10 0;
#X connect 51 0 9 1;
#X connect 52 0 19 0;
#X connect 53 0 18 1;
#X restore 100 360 pd drumkit;
#N canvas 150 175 450 300 play-proba 0;
#X obj 129 180 sel 1;
#X obj 129 49 inlet;
#X obj 129 99 + 1;
#X obj 227 46 inlet;
#X obj 129 157 > 0;
#X obj 227 76 clip 0 100;
#X obj 227 100 expr 100 - $f1;
#X obj 129 76 random 100;
#X obj 129 210 outlet;
#X connect 0 0 8 0;
#X connect 1 0 7 0;
#X connect 2 0 4 0;
#X connect 3 0 5 0;
#X connect 4 0 0 0;
#X connect 5 0 6 0;
#X connect 6 0 4 1;
#X connect 7 0 2 0;
#X restore 294 100 pd play-proba;
#X floatatom 382 46 5 0 0 0 - - - 0;
#X obj 455 14 loadbang;
#X obj 485 162 loadbang;
#X msg 485 186 50;
#N canvas 179 204 450 300 counter 0;
#X obj 87 95 f;
#X obj 117 95 + 1;
#X obj 117 126 % 32;
#X obj 60 24 inlet;
#X obj 110 178 outlet;
#X obj 183 73 f;
#X obj 213 73 + 1;
#X obj 261 165 sel 0;
#X obj 263 202 outlet;
#X obj 213 104 % 96;
#X connect 0 0 1 0;
#X connect 1 0 2 0;
#X connect 2 0 0 1;
#X connect 2 0 4 0;
#X connect 3 0 0 0;
#X connect 3 0 5 0;
#X connect 5 0 6 0;
#X connect 6 0 9 0;
#X connect 7 0 8 0;
#X connect 9 0 5 1;
#X connect 9 0 7 0;
#X restore 100 313 pd counter;
#X obj 680 430 snapshot~;
#X obj 708 368 metro 20;
#X obj 708 346 tgl 15 0 empty empty empty 17 7 0 10 #fcfcfc #000000
#000000 0 1;
#X obj 680 399 osc~ 0.02;
#X obj 252 58 t b b;
#X obj 670 204 + 5;
#X obj 708 322 loadbang;
#X obj 679 454 map -1 1 0.01 0.85;
#N canvas 208 233 389 450 downsamp~ 0;
#X obj 91 371 outlet~;
#X obj 91 327 samphold~;
#X obj 151 304 phasor~;
#X obj 194 202 samplerate~;
#X obj 194 224 * 0.5;
#X obj 151 281 *;
#X obj 194 185 bng 15 250 50 0 empty empty empty 17 7 0 10 #fcfcfc
#000000 #000000;
#X floatatom 194 246 5 0 0 0 - - - 0;
#X floatatom 151 121 5 0 0 0 - - - 0;
#X obj 151 74 swap 1;
#X obj 151 98 -;
#X obj 151 50 clip 0 1;
#X obj 151 143 t f b;
#X obj 91 27 inlet~;
#X obj 151 27 inlet decimate;
#X connect 1 0 0 0;
#X connect 2 0 1 1;
#X connect 3 0 4 0;
#X connect 4 0 7 0;
#X connect 5 0 2 0;
#X connect 6 0 3 0;
#X connect 7 0 5 1;
#X connect 8 0 12 0;
#X connect 9 0 10 0;
#X connect 9 1 10 1;
#X connect 10 0 8 0;
#X connect 11 0 9 0;
#X connect 12 0 5 0;
#X connect 12 1 6 0;
#X connect 13 0 1 0;
#X connect 14 0 11 0;
#X restore 401 557 pd downsamp~;
#X floatatom 482 534 5 0 0 0 - - - 0;
#X msg 382 22 50;
#X floatatom 111 337 5 0 0 0 - - - 0;
#X text 577 632 Congrats ! your object sounds amazing !;
#X obj 294 182 + 36;
#X text 560 61 scales;
#X connect 1 0 21 0;
#X connect 2 0 30 0;
#X connect 3 0 16 0;
#X connect 4 0 1 0;
#X connect 4 0 6 0;
#X connect 5 0 3 0;
#X connect 5 1 20 0;
#X connect 6 0 21 1;
#X connect 7 0 55 0;
#X connect 8 0 7 0;
#X connect 9 0 13 0;
#X connect 9 0 13 1;
#X connect 10 0 9 1;
#X connect 11 0 10 0;
#X connect 12 0 11 0;
#X connect 14 0 59 0;
#X connect 15 0 14 1;
#X connect 16 0 4 0;
#X connect 17 0 30 4;
#X connect 18 0 30 3;
#X connect 19 0 15 0;
#X connect 20 0 19 0;
#X connect 20 1 29 0;
#X connect 21 1 14 0;
#X connect 22 0 26 0;
#X connect 23 0 22 1;
#X connect 24 0 16 1;
#X connect 25 0 26 1;
#X connect 26 0 64 0;
#X connect 27 0 5 0;
#X connect 28 0 27 1;
#X connect 29 0 2 0;
#X connect 30 0 6 1;
#X connect 31 0 22 1;
#X connect 32 0 22 1;
#X connect 33 0 28 0;
#X connect 34 0 56 0;
#X connect 35 0 43 0;
#X connect 36 0 34 0;
#X connect 36 1 35 0;
#X connect 37 0 1 0;
#X connect 38 0 37 0;
#X connect 39 0 1 0;
#X connect 40 0 1 0;
#X connect 41 0 38 0;
#X connect 42 0 41 0;
#X connect 42 0 40 0;
#X connect 43 0 17 0;
#X connect 44 0 59 0;
#X connect 45 0 22 0;
#X connect 45 0 36 0;
#X connect 45 0 44 1;
#X connect 46 0 45 1;
#X connect 47 0 23 0;
#X connect 47 0 61 0;
#X connect 48 0 49 0;
#X connect 49 0 24 0;
#X connect 50 0 44 0;
#X connect 50 0 62 0;
#X connect 51 0 58 0;
#X connect 52 0 51 0;
#X connect 53 0 52 0;
#X connect 54 0 51 0;
#X connect 55 0 45 0;
#X connect 55 1 50 0;
#X connect 56 0 18 0;
#X connect 57 0 53 0;
#X connect 59 0 9 0;
#X connect 60 0 59 1;
#X connect 61 0 46 0;
#X connect 64 0 27 0;
