#N canvas 157 86 613 569 12;
#X obj 91 55 inlet;
#X obj 164 381 f;
#X obj 148 491 outlet;
#X msg 49 363 1 \$1;
#X obj 49 341 f;
#X obj 120 344 delay;
#X obj 164 403 pack f f;
#X msg 164 425 \$2 \$1;
#X msg 389 429 0 \$1;
#X msg 271 245 stop;
#X obj 134 55 inlet a;
#X obj 211 55 inlet d;
#X obj 281 55 inlet s;
#X obj 365 55 inlet r;
#X msg 134 99 attack \$1;
#X obj 134 77 f \$1;
#X msg 211 99 decay \$1;
#X msg 281 99 sustain \$1;
#X msg 365 99 release \$1;
#X obj 211 77 f \$2;
#X obj 281 77 f \$3;
#X obj 331 11 loadbang;
#X obj 365 77 f \$4;
#X obj 91 156 route bang attack decay sustain release;
#X obj 149 258 t f f f;
#X obj 75 254 t b b b;
#X obj 283 360 delay;
#X obj 218 248 t f f;
#X obj 314 336 +;
#X obj 322 311 t b f;
#X obj 381 401 f;
#X obj 91 186 t b b;
#X connect 0 0 23 0;
#X connect 1 0 6 0;
#X connect 3 0 2 0;
#X connect 4 0 3 0;
#X connect 5 0 1 0;
#X connect 6 0 7 0;
#X connect 7 0 2 0;
#X connect 8 0 2 0;
#X connect 9 0 5 0;
#X connect 9 0 26 0;
#X connect 10 0 15 0;
#X connect 11 0 19 0;
#X connect 12 0 20 0;
#X connect 13 0 22 0;
#X connect 14 0 23 0;
#X connect 15 0 14 0;
#X connect 16 0 23 0;
#X connect 17 0 23 0;
#X connect 18 0 23 0;
#X connect 19 0 16 0;
#X connect 20 0 17 0;
#X connect 21 0 20 0;
#X connect 21 0 19 0;
#X connect 21 0 15 0;
#X connect 21 0 22 0;
#X connect 22 0 18 0;
#X connect 23 0 31 0;
#X connect 23 1 24 0;
#X connect 23 2 27 0;
#X connect 23 3 6 1;
#X connect 23 4 30 1;
#X connect 24 0 4 1;
#X connect 24 1 5 1;
#X connect 24 2 28 0;
#X connect 25 0 4 0;
#X connect 25 1 5 0;
#X connect 25 2 26 0;
#X connect 26 0 30 0;
#X connect 27 0 1 1;
#X connect 27 1 29 0;
#X connect 28 0 26 1;
#X connect 29 0 28 0;
#X connect 29 1 28 1;
#X connect 30 0 8 0;
#X connect 31 0 25 0;
#X connect 31 1 9 0;
