#N canvas 433 169 589 564 12;
#X obj 91 55 inlet;
#X obj 91 156 route float attack decay sustain release;
#X obj 191 362 f;
#X obj 91 491 outlet;
#X obj 146 274 t f f;
#X msg 91 332 1 \$1;
#X obj 91 310 f;
#X obj 91 274 t b b;
#X obj 146 331 delay;
#X obj 191 384 pack f f;
#X obj 327 344 f;
#X msg 191 406 \$2 \$1;
#X obj 91 217 sel 1 0;
#X msg 327 366 0 \$1;
#X obj 91 182 t f b;
#X msg 213 247 stop;
#X obj 134 55 inlet a;
#X obj 211 55 inlet d;
#X obj 281 55 inlet s;
#X obj 365 55 inlet r;
#X msg 134 99 attack \$1;
#X obj 134 77 f \$1;
#X msg 211 99 decay \$1;
#X msg 281 99 sustain \$1;
#X msg 365 99 release \$1;
#X obj 211 77 f \$2;
#X obj 281 77 f \$3;
#X obj 331 11 loadbang;
#X obj 365 77 f \$4;
#X connect 0 0 1 0;
#X connect 1 0 14 0;
#X connect 1 1 4 0;
#X connect 1 2 2 1;
#X connect 1 3 9 1;
#X connect 1 4 10 1;
#X connect 2 0 9 0;
#X connect 4 0 6 1;
#X connect 4 1 8 1;
#X connect 5 0 3 0;
#X connect 6 0 5 0;
#X connect 7 0 6 0;
#X connect 7 1 8 0;
#X connect 8 0 2 0;
#X connect 9 0 11 0;
#X connect 10 0 13 0;
#X connect 11 0 3 0;
#X connect 12 0 7 0;
#X connect 12 1 10 0;
#X connect 13 0 3 0;
#X connect 14 0 12 0;
#X connect 14 1 15 0;
#X connect 15 0 8 0;
#X connect 16 0 21 0;
#X connect 17 0 25 0;
#X connect 18 0 26 0;
#X connect 19 0 28 0;
#X connect 20 0 1 0;
#X connect 21 0 20 0;
#X connect 22 0 1 0;
#X connect 23 0 1 0;
#X connect 24 0 1 0;
#X connect 25 0 22 0;
#X connect 26 0 23 0;
#X connect 27 0 26 0;
#X connect 27 0 25 0;
#X connect 27 0 21 0;
#X connect 27 0 28 0;
#X connect 28 0 24 0;
