#N canvas 267 294 449 425 12;
#X obj 84 52 inlet;
#X obj 151 52 inlet;
#X obj 198 52 inlet;
#X obj 284 52 inlet;
#X obj 331 52 inlet;
#X obj 168 209 delay;
#X obj 155 338 outlet;
#X obj 84 108 t b b;
#X obj 84 209 pack f f;
#X obj 84 185 f;
#X obj 208 283 pack f f;
#X obj 208 258 f;
#X obj 198 108 t f f;
#X msg 168 185 stop \, bang;
#X obj 151 77 f \$1;
#X obj 198 77 f \$2;
#X obj 284 77 f \$3;
#X obj 331 77 f \$4;
#X obj 257 14 loadbang;
#X connect 0 0 7 0;
#X connect 1 0 14 0;
#X connect 2 0 15 0;
#X connect 3 0 16 0;
#X connect 4 0 17 0;
#X connect 5 0 11 0;
#X connect 7 0 9 0;
#X connect 7 1 13 0;
#X connect 8 0 6 0;
#X connect 9 0 8 0;
#X connect 10 0 6 0;
#X connect 11 0 10 0;
#X connect 12 0 8 1;
#X connect 12 1 5 1;
#X connect 13 0 5 0;
#X connect 14 0 9 1;
#X connect 15 0 12 0;
#X connect 16 0 11 1;
#X connect 17 0 10 1;
#X connect 18 0 14 0;
#X connect 18 0 15 0;
#X connect 18 0 16 0;
#X connect 18 0 17 0;
