#N canvas 0 23 820 576 12;
#X obj 269 414 expr $f3 - $f1 * $f2;
#X text 421 334 < calcul de la pente a = (y2 - y1) / (x2 - x1);
#X text 423 414 < calcul de l'offset b = y - a * x;
#X obj 61 79 inlet value_in;
#X obj 200 78 inlet min_in;
#X obj 294 78 inlet max_in;
#X obj 388 78 inlet min_out;
#X obj 489 78 inlet max_out;
#X obj 132 520 outlet;
#X obj 200 358 t b f f;
#X obj 300 280 t b f;
#X obj 227 280 t b f f;
#X obj 403 281 t b f f;
#X obj 221 150 f \$1;
#X obj 302 150 f \$2;
#X obj 375 150 f \$3;
#X obj 436 151 f \$4;
#X obj 327 106 loadbang;
#X obj 132 478 expr $f1 * $f2 + $f3;
#X obj 200 334 expr ($f4 - $f3) / ($f2 - $f1);
#X connect 0 0 18 2;
#X connect 3 0 18 0;
#X connect 4 0 19 0;
#X connect 5 0 11 0;
#X connect 6 0 10 0;
#X connect 7 0 12 0;
#X connect 9 0 18 0;
#X connect 9 1 18 1;
#X connect 9 2 0 0;
#X connect 10 0 19 0;
#X connect 10 1 19 2;
#X connect 11 0 19 0;
#X connect 11 1 19 1;
#X connect 11 2 0 1;
#X connect 12 0 19 0;
#X connect 12 1 19 3;
#X connect 12 2 0 2;
#X connect 13 0 19 0;
#X connect 14 0 11 0;
#X connect 15 0 10 0;
#X connect 16 0 12 0;
#X connect 17 0 13 0;
#X connect 17 0 14 0;
#X connect 17 0 15 0;
#X connect 17 0 16 0;
#X connect 18 0 8 0;
#X connect 19 0 9 0;
