#N canvas 782 52 459 403 12;
#X obj 89 60 inlet~;
#X obj 143 60 inlet~;
#X obj 202 60 inlet;
#X obj 172 155 expr pow(1 - $f1 \, $f2);
#X obj 227 182 expr pow($f1 \, $f2);
#X obj 202 119 clip 0 1;
#X obj 293 41 loadbang;
#X msg 350 116 1;
#X obj 143 270 *~;
#X obj 89 270 *~;
#X obj 227 228 line~;
#X msg 227 206 \$1 5;
#X obj 172 228 line~;
#X msg 172 206 \$1 5;
#X obj 121 311 outlet~;
#X msg 225 91 0;
#X connect 0 0 9 0;
#X connect 1 0 8 0;
#X connect 2 0 5 0;
#X connect 3 0 13 0;
#X connect 4 0 11 0;
#X connect 5 0 3 0;
#X connect 5 0 4 0;
#X connect 6 0 7 0;
#X connect 6 0 15 0;
#X connect 7 0 3 1;
#X connect 7 0 4 1;
#X connect 8 0 14 0;
#X connect 9 0 14 0;
#X connect 10 0 8 1;
#X connect 11 0 10 0;
#X connect 12 0 9 1;
#X connect 13 0 12 0;
#X connect 15 0 5 0;
