#N canvas 541 191 764 537 12;
#X obj 203 444 array define \$0-array;
#X obj 446 345 soundfiler;
#X obj 519 247 makefilename \$0-array;
#X msg 446 319 read -resize \$1 \$2;
#X obj 446 294 pack s s;
#X obj 519 220 loadbang;
#X obj 492 56 inlet;
#X obj 198 335 tabread4~ \$0-array;
#X obj 198 376 outlet~;
#X obj 198 310 line~;
#X msg 513 368 \$1;
#X obj 446 439 s \$0-nsamples;
#X obj 513 392 * 0.001;
#X obj 513 416 s \$0-filemsr;
#X obj 198 266 pack f f;
#X obj 198 139 f;
#X obj 225 111 r \$0-nsamples;
#X obj 198 111 bng 15 250 50 0 empty empty play -30 7 0 11 #fcfcfc
#000000 #000000;
#X obj 61 340 r \$0-filemsr;
#X obj 43 317 r \$0-nsamples;
#X obj 43 364 /;
#X obj 43 389 s \$0-msduration;
#X obj 251 139 r \$0-msduration;
#X obj 265 214 t b f;
#X floatatom 265 167 5 0 0 1 transposition - - 0;
#X obj 265 190 expr pow(2 \, $f1/12);
#X obj 251 242 /;
#X msg 198 288 0 \, \$1 \$2;
#X obj 102 37 inlet;
#X obj 102 61 sel 0 1;
#X msg 102 89 0;
#X obj 327 42 inlet;
#X connect 1 0 11 0;
#X connect 1 1 10 0;
#X connect 2 0 4 1;
#X connect 3 0 1 0;
#X connect 4 0 3 0;
#X connect 5 0 2 0;
#X connect 6 0 4 0;
#X connect 7 0 8 0;
#X connect 9 0 7 0;
#X connect 10 0 12 0;
#X connect 12 0 13 0;
#X connect 14 0 27 0;
#X connect 15 0 14 0;
#X connect 16 0 15 1;
#X connect 17 0 15 0;
#X connect 18 0 20 1;
#X connect 19 0 20 0;
#X connect 20 0 21 0;
#X connect 22 0 26 0;
#X connect 23 0 26 0;
#X connect 23 1 26 1;
#X connect 24 0 25 0;
#X connect 25 0 23 0;
#X connect 26 0 14 1;
#X connect 27 0 9 0;
#X connect 28 0 29 0;
#X connect 29 0 30 0;
#X connect 29 1 17 0;
#X connect 30 0 9 0;
#X connect 31 0 25 0;
