#N canvas 921 67 389 667 10;
#N canvas 0 22 450 278 (subpatch) 0;
#X array \$1 265 float 0;
#X coords 0 1 264 0 296 150 2 0 0;
#X restore 22 22 graph;
#N canvas 705 289 467 456 guts 0;
#N canvas 407 410 450 300 spectrum 0;
#X obj 103 45 inlet~;
#X obj 103 75 rfft~;
#X obj 103 108 *~;
#X obj 134 108 *~;
#X obj 103 138 sqrt~;
#X obj 111 169 biquad~ 0 0 0 0 1;
#X text 143 75 Fourier series;
#X text 165 128 magnitude;
#X text 163 113 calculate;
#X text 148 44 signal to analyze;
#X obj 307 45 block~ 4096 1;
#X text 233 160 delay two samples;
#X obj 47 44 inlet;
#X text 232 176 for better graphing (?);
#X obj 103 201 /~ 2048;
#X obj 103 244 tabwrite~ \$1;
#X connect 0 0 1 0;
#X connect 1 0 2 0;
#X connect 1 0 2 1;
#X connect 1 1 3 0;
#X connect 1 1 3 1;
#X connect 2 0 4 0;
#X connect 3 0 4 0;
#X connect 4 0 14 0;
#X connect 12 0 15 0;
#X connect 14 0 15 0;
#X restore 41 116 pd spectrum;
#X obj 41 84 metro 100;
#X floatatom 158 245 5 0 0 0 - - -;
#X obj 142 136 hsl 128 15 6 11 0 0 empty empty empty -2 -8 0 10 -262144
-1 -1 5211 0;
#X obj 158 205 pow;
#X msg 158 185 2;
#X obj 158 225 int;
#X obj 139 38 inlet;
#X obj 83 307 samplerate~;
#X obj 83 326 * 0.5;
#X floatatom 83 345 5 0 0 0 - - -;
#X obj 158 331 /;
#X obj 158 307 swap 2048;
#X obj 139 162 t b b f;
#X obj 143 376 /;
#X obj 143 397 outlet;
#X text 149 119 max size (blocksize / 2) => nyquist frequency;
#X obj 189 38 inlet~;
#X obj 175 272 array size \$1;
#X obj 41 40 inlet;
#X obj 313 87 switch~ 1;
#X connect 1 0 0 0;
#X connect 2 0 12 0;
#X connect 2 0 18 0;
#X connect 3 0 13 0;
#X connect 4 0 6 0;
#X connect 5 0 4 0;
#X connect 6 0 2 0;
#X connect 7 0 3 0;
#X connect 8 0 9 0;
#X connect 9 0 10 0;
#X connect 10 0 14 0;
#X connect 11 0 14 1;
#X connect 12 0 11 0;
#X connect 12 1 11 1;
#X connect 13 0 8 0;
#X connect 13 1 5 0;
#X connect 13 2 4 1;
#X connect 14 0 15 0;
#X connect 17 0 0 1;
#X connect 19 0 1 0;
#X connect 19 0 20 0;
#X restore 75 284 pd guts;
#X obj 25 174 hsl 291 14 6 11 0 0 empty empty frequency_range -2 7
0 10 -262144 -162280 -1 11900 0;
#X floatatom 239 190 10 0 0 0 max - -;
#X obj 114 243 inlet~;
#X obj 22 190 tgl 15 0 empty empty on/off 17 7 0 10 -262144 -1 -1 1
1;
#X obj 160 279 dbtorms;
#X floatatom 109 190 5 0 0 1 gain(dB) - -;
#X obj 160 260 + 100;
#X obj 114 264 *~ 1;
#X text 304 190 Hz;
#X obj 241 228 loadbang;
#X msg 241 247 11;
#X connect 1 0 3 0;
#X connect 2 0 1 1;
#X connect 4 0 9 0;
#X connect 5 0 1 0;
#X connect 6 0 9 1;
#X connect 7 0 8 0;
#X connect 8 0 6 0;
#X connect 9 0 1 2;
#X connect 11 0 12 0;
#X connect 12 0 2 0;
#X coords 0 -1 1 1 300 187 2 20 20;
