#N canvas 789 211 366 504 10;
#N canvas 0 22 450 278 (subpatch) 0;
#X array \$1 128 float 0;
#X coords 0 1 127 -1 296 150 2 0 0;
#X restore 22 22 graph;
#X obj 114 243 inlet~;
#X obj 22 175 tgl 15 0 empty empty on/off 17 7 0 10 -262144 -1 -1 1
1;
#X obj 109 218 dbtorms;
#X floatatom 109 175 5 0 0 1 gain(dB) - -;
#X obj 109 199 + 100;
#X obj 114 264 *~ 1;
#X obj 22 199 metro 100;
#X obj 83 306 tabwrite~ \$1;
#X connect 1 0 6 0;
#X connect 2 0 7 0;
#X connect 3 0 6 1;
#X connect 4 0 5 0;
#X connect 5 0 3 0;
#X connect 6 0 8 0;
#X connect 7 0 8 0;
#X coords 0 -1 1 1 300 172 2 20 20;
