#N canvas 0 23 1026 528 12;
#X floatatom 41 39 5 0 360 0 - - - 0;
#X floatatom 41 110 5 0 360 0 - - - 0;
#N canvas 350 297 450 300 un_subpatcher 0;
#X obj 96 167 outlet;
#X obj 96 84 / 180;
#X obj 96 112 * 3.14159;
#X text 182 102 degrees to radians converter;
#X obj 96 43 inlet;
#X connect 1 0 2 0;
#X connect 2 0 0 0;
#X connect 4 0 1 0;
#X restore 41 73 pd un_subpatcher;
#X text 37 147 l'objet [pd] permet de définir des subpatchers et d'organiser
le patch principal de manière plus lisible;
#N canvas 656 80 309 235 un_subpatcher_audio 0;
#X obj 62 43 inlet~;
#X obj 62 161 outlet~;
#X obj 62 126 *~;
#X obj 129 89 line~;
#X obj 62 88 *~ 0.1;
#X obj 129 43 inlet;
#X msg 129 66 \$1 5;
#X connect 0 0 4 0;
#X connect 2 0 1 0;
#X connect 3 0 2 1;
#X connect 4 0 2 0;
#X connect 5 0 6 0;
#X connect 6 0 3 0;
#X restore 43 349 pd un_subpatcher_audio;
#X obj 43 319 phasor~ 60;
#X obj 43 399 dac~ 1 2;
#X obj 194 321 tgl 15 0 empty empty empty 17 7 0 10 #fcfcfc #000000
#000000 0 1;
#X text 38 182 le contenu d'un subpatcher fait partie du patch de plus
haut-niveau (en l'occurrence celui-ci) et peut lui-même contenir d'autres
subpatchers \, sans limite de profondeur;
#X text 40 432 la position en x des objets [inlet(~)] et [outlet(~)]
dans la fenêtre d'un supatcher définit leur position sur l'objet
[pd] lui-même;
#X obj 517 24 bng 15 250 50 0 empty empty empty 17 7 0 10 #fcfcfc #000000
#000000;
#X obj 517 478 bng 15 250 50 0 empty empty empty 17 7 0 10 #fcfcfc
#000000 #000000;
#X text 165 73 < cliquer sur l'objet [pd] pour voir son contenu;
#X text 551 146 une abstraction est un patch créé pour être réutilisé
comme un objet normal;
#X text 551 180 elle s'instancie en spécifiant un chemin relatif au
patch dans lequel elle est utilisée \, ou bien simplement par son
nom si elle est dans le même dossier ou si elle se situe dans un des
dossiers spécifiés dans la liste des paths de Pure Data (Pd > Preferences
> Path... );
#X text 552 260 les objets [inlet(~)] et [outlet(~)] sont utilisés
de la même manière que dans l'objet [pd] pour la définition de ses
entrées/sorties;
#X obj 554 109 dac~ 1 2;
#X floatatom 554 44 5 0 0 0 - - - 0;
#X obj 654 44 hradio 15 1 0 2 empty empty empty 0 -8 0 10 #fcfcfc #000000
#000000 0;
#X obj 757 44 hsl 128 15 0 1 0 0 empty empty empty -2 -8 0 10 #fcfcfc
#000000 #000000 0 0;
#X obj 554 73 ./abstraction-exemple 440 0.1;
#X text 553 312 il est également possible de lui attribuer des arguments
avec les symboles \$1 \, \$2 \, ... qui seront substitués par les
arguments n° 1 \, 2 \, ... au moment de l'instanciation;
#X text 553 364 le symbole \$0 a une signification particulière :
chaque instance d'une même abstraction se verra attribuer un identifiant
unique qui sera substitué à \$0;
#X text 554 417 ATTENTION : \$0 et \$1 \, \$2 \, ... doivent être
définis dans des objets "normaux" de l'abstraction (dans un objet
message \$0 n'est pas pris en compte \, et \$1 \, \$2 \, ... ont une
toute autre signification);
#X text 38 233 les objets [inlet] et [outlet] permettent de définir
autant d'entrées/sorties non audio que nécessaire \, pour définir
des entrées/sorties audio on utilisera leurs homonymes [inlet~] et
[outlet~] :;
#X connect 0 0 2 0;
#X connect 2 0 1 0;
#X connect 4 0 6 0;
#X connect 4 0 6 1;
#X connect 5 0 4 0;
#X connect 7 0 4 1;
#X connect 10 0 11 0;
#X connect 17 0 20 0;
#X connect 18 0 20 1;
#X connect 19 0 20 2;
#X connect 20 0 16 0;
#X connect 20 0 16 1;
