#N canvas 128 232 623 420 12;
#X obj 370 283 +;
#X obj 402 283 f;
#X floatatom 370 313 5 0 0 0 - - - 0;
#X obj 74 97 f;
#X obj 105 97 + 1;
#X obj 62 44 bng 15 250 50 0 empty empty empty 17 7 0 10 #fcfcfc #000000
#000000;
#X floatatom 74 127 5 0 0 0 - - - 0;
#X msg 106 43 0;
#X floatatom 352 228 5 0 0 0 - - - 0;
#X msg 403 227 0;
#X obj 80 255 until;
#X obj 80 281 f;
#X obj 111 281 + 1;
#X msg 80 218 10;
#X obj 80 311 print;
#X obj 365 98 -;
#X obj 361 58 t f f;
#X floatatom 361 29 5 0 0 0 - - - 0;
#X floatatom 365 126 5 0 0 0 - - - 0;
#X text 332 340 un intégrateur (ou accumulateur);
#X text 62 151 un compteur;
#X text 330 154 un dérivateur (dérivée d'ordre 1);
#X text 39 339 implémentation d'une boucle for;
#X connect 0 0 1 0;
#X connect 0 0 2 0;
#X connect 1 0 0 1;
#X connect 3 0 4 0;
#X connect 3 0 6 0;
#X connect 4 0 3 1;
#X connect 5 0 3 0;
#X connect 7 0 3 1;
#X connect 8 0 0 0;
#X connect 9 0 0 1;
#X connect 10 0 11 0;
#X connect 11 0 12 0;
#X connect 11 0 14 0;
#X connect 12 0 11 1;
#X connect 13 0 10 0;
#X connect 15 0 18 0;
#X connect 16 0 15 1;
#X connect 16 1 15 0;
#X connect 17 0 16 0;
