#N canvas 316 63 816 541 12;
#X obj 265 471 outlet~;
#X obj 482 42 inlet;
#X obj 482 132 unpack f f;
#X obj 616 247 line~;
#X obj 616 201 inlet;
#X obj 549 180 line~;
#X msg 549 157 \$1 5;
#X obj 260 378 *~;
#X obj 482 180 line~;
#X msg 482 157 \$1 5;
#X msg 482 98 1 0;
#X msg 516 98 0 1;
#X obj 265 443 *~;
#X obj 482 67 sel 0 1;
#X text 663 200 < contrôle du volume;
#X text 528 42 < sélection de forme d'onde;
#X obj 50 55 inlet;
#X obj 104 166 line~;
#X msg 50 82 \$1 5;
#X text 96 55 < fréquence;
#X obj 129 231 expr~ 0.2 * ($v1 * 2 - 1);
#X obj 223 378 *~;
#X obj 412 48 loadbang;
#X obj 240 410 *~ \$2;
#X obj 90 231 osc~;
#X obj 129 206 phasor~;
#X obj 132 98 loadbang;
#X obj 132 122 f \$1;
#X text 168 122 < argument 1 :;
#X text 181 138 fréquence par défaut des oscillateurs;
#X text 285 410 < argument 2 :;
#X text 298 425 facteur d'atténuation d'amplitude constant;
#X msg 616 224 \$1 10;
#X connect 1 0 13 0;
#X connect 2 0 9 0;
#X connect 2 1 6 0;
#X connect 3 0 12 1;
#X connect 4 0 32 0;
#X connect 5 0 7 1;
#X connect 6 0 5 0;
#X connect 7 0 23 0;
#X connect 8 0 21 1;
#X connect 9 0 8 0;
#X connect 10 0 2 0;
#X connect 11 0 2 0;
#X connect 12 0 0 0;
#X connect 13 0 10 0;
#X connect 13 1 11 0;
#X connect 16 0 18 0;
#X connect 17 0 24 0;
#X connect 17 0 25 0;
#X connect 18 0 17 0;
#X connect 20 0 7 0;
#X connect 21 0 23 0;
#X connect 22 0 10 0;
#X connect 23 0 12 0;
#X connect 24 0 21 0;
#X connect 25 0 20 0;
#X connect 26 0 27 0;
#X connect 27 0 17 0;
#X connect 32 0 3 0;
